ffmpeg started on 2025-03-25 at 15:03:32
Report written to "D:\Convert\FFMetrics\reports\vmaf_report-6.txt"
Log level: 32
Command line:
ffmpeg -hide_banner -nostdin -r 24000/1001 -i "G:\\\xc0\xed\xe8\xec\xe5\\\xce\xed\xe3\xee\xe8\xed\xe3\xe8\\!_35_\xcb\xe5\xf2\xee_2024\\DreamCast\\\xc0\xeb\xff \xe8\xed\xee\xe3\xe4\xe0 \xea\xee\xea\xe5\xf2\xed\xe8\xf7\xe0\xe5\xf2 \xf1\xee \xec\xed\xee\xe9 \xef\xee-\xf0\xf3\xf1\xf1\xea\xe8\\[DC] Roshidere - 03_Telegram_HEVC.mkv" -r 24000/1001 -i "G:\\\xc0\xed\xe8\xec\xe5\\\xce\xed\xe3\xee\xe8\xed\xe3\xe8\\!_35_\xcb\xe5\xf2\xee_2024\\DreamCast\\\xc0\xeb\xff \xe8\xed\xee\xe3\xe4\xe0 \xea\xee\xea\xe5\xf2\xed\xe8\xf7\xe0\xe5\xf2 \xf1\xee \xec\xed\xee\xe9 \xef\xee-\xf0\xf3\xf1\xf1\xea\xe8\\[DC] Roshidere - 03_Telegram.mp4" -lavfi "[0:v]settb=AVTB,setpts=PTS-STARTPTS,format=pix_fmts=yuv420p10,fps=24000/1001,scale=1920:1080:flags=bicubic[main];[1:v]settb=AVTB,setpts=PTS-STARTPTS,format=pix_fmts=yuv420p,fps=24000/1001,scale=1920:1080:flags=bicubic[ref];[main][ref]libvmaf=eof_action=endall:log_path='D\\:/Convert/FFMetrics/logs/vmaf_logfile-6.txt':n_threads=32:pool=Mean:model=version=vmaf_v0.6.1" -f null -
Input #0, matroska,webm, from 'G:\Аниме\Онгоинги\!_35_Лето_2024\DreamCast\Аля иногда кокетничает со мной по-русски\[DC] Roshidere - 03_Telegram_HEVC.mkv':
  Metadata:
    COMPATIBLE_BRANDS: isomiso2avc1mp41
    MAJOR_BRAND     : isom
    MINOR_VERSION   : 512
    ENCODER         : Lavf61.7.100
  Duration: 00:24:47.02, start: -0.021000, bitrate: 960 kb/s
  Stream #0:0: Video: hevc (Main 10), yuv420p10le(tv, bt709, progressive), 1920x1080 [SAR 1:1 DAR 16:9], 23.98 fps, 23.98 tbr, 1k tbn (default)
      Metadata:
        HANDLER_NAME    : VideoHandler
        VENDOR_ID       : [0][0][0][0]
        ENCODER         : Lavc61.19.100 libx265
        BPS             : 763633
        DURATION        : 00:24:46.526708333
        NUMBER_OF_FRAMES: 35641
        NUMBER_OF_BYTES : 141895216
        _STATISTICS_WRITING_APP: mkvpropedit v66.0.0 ('Josie') 64-bit
        _STATISTICS_WRITING_DATE_UTC: 2025-03-21 10:02:32
        _STATISTICS_TAGS: BPS DURATION NUMBER_OF_FRAMES NUMBER_OF_BYTES
  Stream #0:1: Audio: aac (LC), 48000 Hz, stereo, fltp (default)
      Metadata:
        HANDLER_NAME    : SoundHandler
        VENDOR_ID       : [0][0][0][0]
        ENCODER         : Lavc61.19.100 aac
        BPS             : 193468
        DURATION        : 00:24:47.018000000
        NUMBER_OF_FRAMES: 69705
        NUMBER_OF_BYTES : 35961325
        _STATISTICS_WRITING_APP: mkvpropedit v66.0.0 ('Josie') 64-bit
        _STATISTICS_WRITING_DATE_UTC: 2025-03-21 10:02:32
        _STATISTICS_TAGS: BPS DURATION NUMBER_OF_FRAMES NUMBER_OF_BYTES
Input #1, mov,mp4,m4a,3gp,3g2,mj2, from 'G:\Аниме\Онгоинги\!_35_Лето_2024\DreamCast\Аля иногда кокетничает со мной по-русски\[DC] Roshidere - 03_Telegram.mp4':
  Metadata:
    major_brand     : isom
    minor_version   : 512
    compatible_brands: isomiso2avc1mp41
    encoder         : Lavf61.1.100
  Duration: 00:24:46.99, start: 0.000000, bitrate: 3720 kb/s
  Stream #1:0[0x1](und): Video: h264 (High) (avc1 / 0x31637661), yuv420p(tv, bt709, progressive), 1920x1080 [SAR 1:1 DAR 16:9], 3573 kb/s, 23.98 fps, 23.98 tbr, 24k tbn (default)
      Metadata:
        handler_name    : VideoHandler
        vendor_id       : [0][0][0][0]
        encoder         : Lavc61.3.100 h264_qsv
  Stream #1:1[0x2](und): Audio: aac (HE-AACv2) (mp4a / 0x6134706D), 48000 Hz, stereo, fltp, 144 kb/s (default)
      Metadata:
        handler_name    : SoundHandler
        vendor_id       : [0][0][0][0]
Stream mapping:
  Stream #0:0 (hevc) -> settb:default
  Stream #1:0 (h264) -> settb:default
  libvmaf:default -> Stream #0:0 (wrapped_avframe)
  Stream #0:1 -> #0:1 (aac (native) -> pcm_s16le (native))
Output #0, null, to 'pipe:':
  Metadata:
    COMPATIBLE_BRANDS: isomiso2avc1mp41
    MAJOR_BRAND     : isom
    MINOR_VERSION   : 512
    encoder         : Lavf61.7.100
  Stream #0:0: Video: wrapped_avframe, yuv420p10le(tv, bt709, progressive), 1920x1080 [SAR 1:1 DAR 16:9], q=2-31, 200 kb/s, 23.98 fps, 23.98 tbn
      Metadata:
        encoder         : Lavc61.19.100 wrapped_avframe
  Stream #0:1: Audio: pcm_s16le, 48000 Hz, stereo, s16, 1536 kb/s (default)
      Metadata:
        HANDLER_NAME    : SoundHandler
        VENDOR_ID       : [0][0][0][0]
        _STATISTICS_TAGS: BPS DURATION NUMBER_OF_FRAMES NUMBER_OF_BYTES
        BPS             : 193468
        DURATION        : 00:24:47.018000000
        NUMBER_OF_FRAMES: 69705
        NUMBER_OF_BYTES : 35961325
        _STATISTICS_WRITING_APP: mkvpropedit v66.0.0 ('Josie') 64-bit
        _STATISTICS_WRITING_DATE_UTC: 2025-03-21 10:02:32
        encoder         : Lavc61.19.100 pcm_s16le
frame=   38 fps=0.0 q=-0.0 size=N/A time=00:00:01.58 bitrate=N/A speed=3.08x    frame=   84 fps= 81 q=-0.0 size=N/A time=00:00:03.50 bitrate=N/A speed=3.38x    frame=  129 fps= 84 q=-0.0 size=N/A time=00:00:05.38 bitrate=N/A speed=3.48x    frame=  175 fps= 85 q=-0.0 size=N/A time=00:00:07.29 bitrate=N/A speed=3.53x    frame=  222 fps= 86 q=-0.0 size=N/A time=00:00:09.25 bitrate=N/A speed=3.59x    frame=  267 fps= 86 q=-0.0 size=N/A time=00:00:11.13 bitrate=N/A speed= 3.6x    frame=  314 fps= 87 q=-0.0 size=N/A time=00:00:13.09 bitrate=N/A speed=3.64x    frame=  361 fps= 87 q=-0.0 size=N/A time=00:00:15.05 bitrate=N/A speed=3.65x    frame=  406 fps= 88 q=-0.0 size=N/A time=00:00:16.93 bitrate=N/A speed=3.65x    frame=  453 fps= 88 q=-0.0 size=N/A time=00:00:18.89 bitrate=N/A speed=3.66x    frame=  500 fps= 88 q=-0.0 size=N/A time=00:00:20.85 bitrate=N/A speed=3.67x    frame=  545 fps= 88 q=-0.0 size=N/A time=00:00:22.73 bitrate=N/A speed=3.67x    frame=  591 fps= 88 q=-0.0 size=N/A time=00:00:24.64 bitrate=N/A speed=3.67x    frame=  638 fps= 88 q=-0.0 size=N/A time=00:00:26.60 bitrate=N/A speed=3.68x    frame=  683 fps= 88 q=-0.0 size=N/A time=00:00:28.48 bitrate=N/A speed=3.68x    frame=  727 fps= 88 q=-0.0 size=N/A time=00:00:30.32 bitrate=N/A speed=3.67x    frame=  771 fps= 88 q=-0.0 size=N/A time=00:00:32.15 bitrate=N/A speed=3.66x    frame=  817 fps= 88 q=-0.0 size=N/A time=00:00:34.07 bitrate=N/A speed=3.66x    frame=  862 fps= 88 q=-0.0 size=N/A time=00:00:35.95 bitrate=N/A speed=3.67x    frame=  909 fps= 88 q=-0.0 size=N/A time=00:00:37.91 bitrate=N/A speed=3.67x    frame=  955 fps= 88 q=-0.0 size=N/A time=00:00:39.83 bitrate=N/A speed=3.67x    frame=  999 fps= 88 q=-0.0 size=N/A time=00:00:41.66 bitrate=N/A speed=3.67x    frame= 1042 fps= 88 q=-0.0 size=N/A time=00:00:43.46 bitrate=N/A speed=3.65x    frame= 1086 fps= 88 q=-0.0 size=N/A time=00:00:45.29 bitrate=N/A speed=3.65x    frame= 1130 fps= 87 q=-0.0 size=N/A time=00:00:47.13 bitrate=N/A speed=3.65x    frame= 1175 fps= 87 q=-0.0 size=N/A time=00:00:49.00 bitrate=N/A speed=3.65x    frame= 1221 fps= 88 q=-0.0 size=N/A time=00:00:50.92 bitrate=N/A speed=3.65x    frame= 1265 fps= 87 q=-0.0 size=N/A time=00:00:52.76 bitrate=N/A speed=3.65x    frame= 1312 fps= 88 q=-0.0 size=N/A time=00:00:54.72 bitrate=N/A speed=3.65x    frame= 1358 fps= 88 q=-0.0 size=N/A time=00:00:56.63 bitrate=N/A speed=3.65x    frame= 1404 fps= 88 q=-0.0 size=N/A time=00:00:58.55 bitrate=N/A speed=3.66x    frame= 1450 fps= 88 q=-0.0 size=N/A time=00:01:00.47 bitrate=N/A speed=3.66x    frame= 1495 fps= 88 q=-0.0 size=N/A time=00:01:02.35 bitrate=N/A speed=3.65x    frame= 1537 fps= 87 q=-0.0 size=N/A time=00:01:04.10 bitrate=N/A speed=3.65x    frame= 1582 fps= 87 q=-0.0 size=N/A time=00:01:05.98 bitrate=N/A speed=3.65x    frame= 1625 fps= 87 q=-0.0 size=N/A time=00:01:07.77 bitrate=N/A speed=3.64x    frame= 1668 fps= 87 q=-0.0 size=N/A time=00:01:09.56 bitrate=N/A speed=3.64x    frame= 1714 fps= 87 q=-0.0 size=N/A time=00:01:11.48 bitrate=N/A speed=3.64x    frame= 1760 fps= 87 q=-0.0 size=N/A time=00:01:13.40 bitrate=N/A speed=3.64x    frame= 1805 fps= 87 q=-0.0 size=N/A time=00:01:15.28 bitrate=N/A speed=3.64x    frame= 1852 fps= 87 q=-0.0 size=N/A time=00:01:17.24 bitrate=N/A speed=3.64x    frame= 1895 fps= 87 q=-0.0 size=N/A time=00:01:19.03 bitrate=N/A speed=3.64x    frame= 1939 fps= 87 q=-0.0 size=N/A time=00:01:20.87 bitrate=N/A speed=3.64x    frame= 1985 fps= 87 q=-0.0 size=N/A time=00:01:22.79 bitrate=N/A speed=3.64x    frame= 2031 fps= 87 q=-0.0 size=N/A time=00:01:24.70 bitrate=N/A speed=3.64x    frame= 2077 fps= 87 q=-0.0 size=N/A time=00:01:26.62 bitrate=N/A speed=3.64x    frame= 2122 fps= 87 q=-0.0 size=N/A time=00:01:28.50 bitrate=N/A speed=3.64x    frame= 2166 fps= 87 q=-0.0 size=N/A time=00:01:30.34 bitrate=N/A speed=3.64x    frame= 2212 fps= 87 q=-0.0 size=N/A time=00:01:32.25 bitrate=N/A speed=3.64x    frame= 2257 fps= 87 q=-0.0 size=N/A time=00:01:34.13 bitrate=N/A speed=3.64x    frame= 2301 fps= 87 q=-0.0 size=N/A time=00:01:35.97 bitrate=N/A speed=3.64x    frame= 2346 fps= 87 q=-0.0 size=N/A time=00:01:37.84 bitrate=N/A speed=3.64x    frame= 2391 fps= 87 q=-0.0 size=N/A time=00:01:39.72 bitrate=N/A speed=3.64x    frame= 2435 fps= 87 q=-0.0 size=N/A time=00:01:41.55 bitrate=N/A speed=3.64x    frame= 2481 fps= 87 q=-0.0 size=N/A time=00:01:43.47 bitrate=N/A speed=3.64x    frame= 2526 fps= 87 q=-0.0 size=N/A time=00:01:45.35 bitrate=N/A speed=3.64x    frame= 2570 fps= 87 q=-0.0 size=N/A time=00:01:47.19 bitrate=N/A speed=3.64x    frame= 2615 fps= 87 q=-0.0 size=N/A time=00:01:49.06 bitrate=N/A speed=3.64x    frame= 2657 fps= 87 q=-0.0 size=N/A time=00:01:50.81 bitrate=N/A speed=3.64x    frame= 2704 fps= 87 q=-0.0 size=N/A time=00:01:52.77 bitrate=N/A speed=3.64x    frame= 2747 fps= 87 q=-0.0 size=N/A time=00:01:54.57 bitrate=N/A speed=3.64x    frame= 2795 fps= 87 q=-0.0 size=N/A time=00:01:56.57 bitrate=N/A speed=3.64x    frame= 2840 fps= 87 q=-0.0 size=N/A time=00:01:58.45 bitrate=N/A speed=3.64x    frame= 2885 fps= 87 q=-0.0 size=N/A time=00:02:00.32 bitrate=N/A speed=3.64x    frame= 2930 fps= 87 q=-0.0 size=N/A time=00:02:02.20 bitrate=N/A speed=3.64x    frame= 2976 fps= 87 q=-0.0 size=N/A time=00:02:04.12 bitrate=N/A speed=3.64x    frame= 3020 fps= 87 q=-0.0 size=N/A time=00:02:05.95 bitrate=N/A speed=3.64x    frame= 3066 fps= 87 q=-0.0 size=N/A time=00:02:07.87 bitrate=N/A speed=3.64x    frame= 3112 fps= 87 q=-0.0 size=N/A time=00:02:09.79 bitrate=N/A speed=3.64x    frame= 3157 fps= 87 q=-0.0 size=N/A time=00:02:11.67 bitrate=N/A speed=3.64x    frame= 3204 fps= 87 q=-0.0 size=N/A time=00:02:13.63 bitrate=N/A speed=3.64x    frame= 3249 fps= 87 q=-0.0 size=N/A time=00:02:15.51 bitrate=N/A speed=3.64x    frame= 3295 fps= 87 q=-0.0 size=N/A time=00:02:17.42 bitrate=N/A speed=3.65x    frame= 3342 fps= 87 q=-0.0 size=N/A time=00:02:19.38 bitrate=N/A speed=3.65x    frame= 3388 fps= 87 q=-0.0 size=N/A time=00:02:21.30 bitrate=N/A speed=3.65x    frame= 3433 fps= 87 q=-0.0 size=N/A time=00:02:23.18 bitrate=N/A speed=3.65x    frame= 3481 fps= 88 q=-0.0 size=N/A time=00:02:25.18 bitrate=N/A speed=3.65x    frame= 3523 fps= 87 q=-0.0 size=N/A time=00:02:26.93 bitrate=N/A speed=3.65x    frame= 3568 fps= 87 q=-0.0 size=N/A time=00:02:28.81 bitrate=N/A speed=3.65x    frame= 3614 fps= 87 q=-0.0 size=N/A time=00:02:30.73 bitrate=N/A speed=3.65x    frame= 3658 fps= 87 q=-0.0 size=N/A time=00:02:32.56 bitrate=N/A speed=3.65x    frame= 3703 fps= 87 q=-0.0 size=N/A time=00:02:34.44 bitrate=N/A speed=3.65x    frame= 3746 fps= 87 q=-0.0 size=N/A time=00:02:36.23 bitrate=N/A speed=3.65x    frame= 3791 fps= 87 q=-0.0 size=N/A time=00:02:38.11 bitrate=N/A speed=3.65x    frame= 3837 fps= 87 q=-0.0 size=N/A time=00:02:40.03 bitrate=N/A speed=3.65x    frame= 3881 fps= 87 q=-0.0 size=N/A time=00:02:41.87 bitrate=N/A speed=3.65x    frame= 3927 fps= 87 q=-0.0 size=N/A time=00:02:43.78 bitrate=N/A speed=3.65x    frame= 3972 fps= 87 q=-0.0 size=N/A time=00:02:45.66 bitrate=N/A speed=3.65x    frame= 4018 fps= 87 q=-0.0 size=N/A time=00:02:47.58 bitrate=N/A speed=3.65x    frame= 4061 fps= 87 q=-0.0 size=N/A time=00:02:49.37 bitrate=N/A speed=3.65x    frame= 4108 fps= 87 q=-0.0 size=N/A time=00:02:51.33 bitrate=N/A speed=3.65x    frame= 4151 fps= 87 q=-0.0 size=N/A time=00:02:53.13 bitrate=N/A speed=3.65x    frame= 4196 fps= 87 q=-0.0 size=N/A time=00:02:55.00 bitrate=N/A speed=3.64x    frame= 4246 fps= 87 q=-0.0 size=N/A time=00:02:57.09 bitrate=N/A speed=3.65x    frame= 4292 fps= 87 q=-0.0 size=N/A time=00:02:59.01 bitrate=N/A speed=3.65x    frame= 4336 fps= 87 q=-0.0 size=N/A time=00:03:00.84 bitrate=N/A speed=3.65x    frame= 4382 fps= 87 q=-0.0 size=N/A time=00:03:02.76 bitrate=N/A speed=3.65x    frame= 4425 fps= 87 q=-0.0 size=N/A time=00:03:04.55 bitrate=N/A speed=3.65x    frame= 4469 fps= 87 q=-0.0 size=N/A time=00:03:06.39 bitrate=N/A speed=3.65x    frame= 4514 fps= 87 q=-0.0 size=N/A time=00:03:08.27 bitrate=N/A speed=3.65x    frame= 4561 fps= 87 q=-0.0 size=N/A time=00:03:10.23 bitrate=N/A speed=3.65x    frame= 4605 fps= 87 q=-0.0 size=N/A time=00:03:12.06 bitrate=N/A speed=3.65x    frame= 4651 fps= 87 q=-0.0 size=N/A time=00:03:13.98 bitrate=N/A speed=3.65x    frame= 4696 fps= 87 q=-0.0 size=N/A time=00:03:15.86 bitrate=N/A speed=3.65x    frame= 4740 fps= 87 q=-0.0 size=N/A time=00:03:17.69 bitrate=N/A speed=3.65x    frame= 4785 fps= 87 q=-0.0 size=N/A time=00:03:19.57 bitrate=N/A speed=3.65x    frame= 4829 fps= 87 q=-0.0 size=N/A time=00:03:21.40 bitrate=N/A speed=3.65x    frame= 4873 fps= 87 q=-0.0 size=N/A time=00:03:23.24 bitrate=N/A speed=3.65x    frame= 4918 fps= 87 q=-0.0 size=N/A time=00:03:25.12 bitrate=N/A speed=3.64x    frame= 4964 fps= 87 q=-0.0 size=N/A time=00:03:27.04 bitrate=N/A speed=3.65x    frame= 5007 fps= 87 q=-0.0 size=N/A time=00:03:28.83 bitrate=N/A speed=3.64x    frame= 5053 fps= 87 q=-0.0 size=N/A time=00:03:30.75 bitrate=N/A speed=3.64x    frame= 5097 fps= 87 q=-0.0 size=N/A time=00:03:32.58 bitrate=N/A speed=3.64x    frame= 5141 fps= 87 q=-0.0 size=N/A time=00:03:34.42 bitrate=N/A speed=3.64x    frame= 5184 fps= 87 q=-0.0 size=N/A time=00:03:36.21 bitrate=N/A speed=3.64x    frame= 5228 fps= 87 q=-0.0 size=N/A time=00:03:38.05 bitrate=N/A speed=3.64x    frame= 5274 fps= 87 q=-0.0 size=N/A time=00:03:39.96 bitrate=N/A speed=3.64x    frame= 5317 fps= 87 q=-0.0 size=N/A time=00:03:41.76 bitrate=N/A speed=3.64x    frame= 5360 fps= 87 q=-0.0 size=N/A time=00:03:43.55 bitrate=N/A speed=3.64x    frame= 5406 fps= 87 q=-0.0 size=N/A time=00:03:45.47 bitrate=N/A speed=3.64x    frame= 5450 fps= 87 q=-0.0 size=N/A time=00:03:47.31 bitrate=N/A speed=3.64x    frame= 5494 fps= 87 q=-0.0 size=N/A time=00:03:49.14 bitrate=N/A speed=3.64x    frame= 5540 fps= 87 q=-0.0 size=N/A time=00:03:51.06 bitrate=N/A speed=3.64x    frame= 5583 fps= 87 q=-0.0 size=N/A time=00:03:52.85 bitrate=N/A speed=3.64x    frame= 5628 fps= 87 q=-0.0 size=N/A time=00:03:54.73 bitrate=N/A speed=3.64x    frame= 5675 fps= 87 q=-0.0 size=N/A time=00:03:56.69 bitrate=N/A speed=3.64x    frame= 5718 fps= 87 q=-0.0 size=N/A time=00:03:58.48 bitrate=N/A speed=3.64x    frame= 5762 fps= 87 q=-0.0 size=N/A time=00:04:00.32 bitrate=N/A speed=3.64x    frame= 5808 fps= 87 q=-0.0 size=N/A time=00:04:02.24 bitrate=N/A speed=3.64x    frame= 5854 fps= 87 q=-0.0 size=N/A time=00:04:04.16 bitrate=N/A speed=3.64x    frame= 5898 fps= 87 q=-0.0 size=N/A time=00:04:05.99 bitrate=N/A speed=3.64x    frame= 5944 fps= 87 q=-0.0 size=N/A time=00:04:07.91 bitrate=N/A speed=3.64x    frame= 5987 fps= 87 q=-0.0 size=N/A time=00:04:09.70 bitrate=N/A speed=3.64x    frame= 6034 fps= 87 q=-0.0 size=N/A time=00:04:11.66 bitrate=N/A speed=3.64x    frame= 6077 fps= 87 q=-0.0 size=N/A time=00:04:13.46 bitrate=N/A speed=3.64x    frame= 6121 fps= 87 q=-0.0 size=N/A time=00:04:15.29 bitrate=N/A speed=3.64x    frame= 6165 fps= 87 q=-0.0 size=N/A time=00:04:17.13 bitrate=N/A speed=3.63x    frame= 6210 fps= 87 q=-0.0 size=N/A time=00:04:19.00 bitrate=N/A speed=3.64x    frame= 6254 fps= 87 q=-0.0 size=N/A time=00:04:20.84 bitrate=N/A speed=3.64x    frame= 6300 fps= 87 q=-0.0 size=N/A time=00:04:22.76 bitrate=N/A speed=3.64x    frame= 6343 fps= 87 q=-0.0 size=N/A time=00:04:24.55 bitrate=N/A speed=3.63x    frame= 6387 fps= 87 q=-0.0 size=N/A time=00:04:26.39 bitrate=N/A speed=3.63x    frame= 6430 fps= 87 q=-0.0 size=N/A time=00:04:28.18 bitrate=N/A speed=3.63x    frame= 6474 fps= 87 q=-0.0 size=N/A time=00:04:30.01 bitrate=N/A speed=3.63x    frame= 6518 fps= 87 q=-0.0 size=N/A time=00:04:31.85 bitrate=N/A speed=3.63x    frame= 6567 fps= 87 q=-0.0 size=N/A time=00:04:33.89 bitrate=N/A speed=3.63x    frame= 6609 fps= 87 q=-0.0 size=N/A time=00:04:35.65 bitrate=N/A speed=3.63x    frame= 6655 fps= 87 q=-0.0 size=N/A time=00:04:37.56 bitrate=N/A speed=3.63x    frame= 6701 fps= 87 q=-0.0 size=N/A time=00:04:39.48 bitrate=N/A speed=3.63x    frame= 6746 fps= 87 q=-0.0 size=N/A time=00:04:41.36 bitrate=N/A speed=3.63x    frame= 6792 fps= 87 q=-0.0 size=N/A time=00:04:43.28 bitrate=N/A speed=3.63x    frame= 6838 fps= 87 q=-0.0 size=N/A time=00:04:45.20 bitrate=N/A speed=3.63x    frame= 6880 fps= 87 q=-0.0 size=N/A time=00:04:46.95 bitrate=N/A speed=3.63x    frame= 6926 fps= 87 q=-0.0 size=N/A time=00:04:48.87 bitrate=N/A speed=3.63x    frame= 6969 fps= 87 q=-0.0 size=N/A time=00:04:50.66 bitrate=N/A speed=3.63x    frame= 7016 fps= 87 q=-0.0 size=N/A time=00:04:52.62 bitrate=N/A speed=3.63x    frame= 7060 fps= 87 q=-0.0 size=N/A time=00:04:54.46 bitrate=N/A speed=3.63x    frame= 7104 fps= 87 q=-0.0 size=N/A time=00:04:56.29 bitrate=N/A speed=3.63x    frame= 7150 fps= 87 q=-0.0 size=N/A time=00:04:58.21 bitrate=N/A speed=3.63x    frame= 7194 fps= 87 q=-0.0 size=N/A time=00:05:00.04 bitrate=N/A speed=3.63x    frame= 7240 fps= 87 q=-0.0 size=N/A time=00:05:01.96 bitrate=N/A speed=3.63x    frame= 7284 fps= 87 q=-0.0 size=N/A time=00:05:03.80 bitrate=N/A speed=3.63x    frame= 7328 fps= 87 q=-0.0 size=N/A time=00:05:05.63 bitrate=N/A speed=3.63x    frame= 7373 fps= 87 q=-0.0 size=N/A time=00:05:07.51 bitrate=N/A speed=3.63x    frame= 7419 fps= 87 q=-0.0 size=N/A time=00:05:09.43 bitrate=N/A speed=3.63x    frame= 7462 fps= 87 q=-0.0 size=N/A time=00:05:11.22 bitrate=N/A speed=3.63x    frame= 7509 fps= 87 q=-0.0 size=N/A time=00:05:13.18 bitrate=N/A speed=3.63x    frame= 7553 fps= 87 q=-0.0 size=N/A time=00:05:15.02 bitrate=N/A speed=3.63x    frame= 7598 fps= 87 q=-0.0 size=N/A time=00:05:16.89 bitrate=N/A speed=3.63x    frame= 7645 fps= 87 q=-0.0 size=N/A time=00:05:18.86 bitrate=N/A speed=3.63x    frame= 7690 fps= 87 q=-0.0 size=N/A time=00:05:20.73 bitrate=N/A speed=3.63x    frame= 7733 fps= 87 q=-0.0 size=N/A time=00:05:22.53 bitrate=N/A speed=3.63x    frame= 7777 fps= 87 q=-0.0 size=N/A time=00:05:24.36 bitrate=N/A speed=3.63x    frame= 7820 fps= 87 q=-0.0 size=N/A time=00:05:26.15 bitrate=N/A speed=3.63x    frame= 7864 fps= 87 q=-0.0 size=N/A time=00:05:27.99 bitrate=N/A speed=3.63x    frame= 7907 fps= 87 q=-0.0 size=N/A time=00:05:29.78 bitrate=N/A speed=3.63x    frame= 7953 fps= 87 q=-0.0 size=N/A time=00:05:31.70 bitrate=N/A speed=3.63x    frame= 7999 fps= 87 q=-0.0 size=N/A time=00:05:33.62 bitrate=N/A speed=3.63x    frame= 8043 fps= 87 q=-0.0 size=N/A time=00:05:35.46 bitrate=N/A speed=3.63x    frame= 8088 fps= 87 q=-0.0 size=N/A time=00:05:37.33 bitrate=N/A speed=3.63x    frame= 8132 fps= 87 q=-0.0 size=N/A time=00:05:39.17 bitrate=N/A speed=3.63x    frame= 8176 fps= 87 q=-0.0 size=N/A time=00:05:41.00 bitrate=N/A speed=3.63x    frame= 8220 fps= 87 q=-0.0 size=N/A time=00:05:42.84 bitrate=N/A speed=3.63x    frame= 8264 fps= 87 q=-0.0 size=N/A time=00:05:44.67 bitrate=N/A speed=3.63x    frame= 8308 fps= 87 q=-0.0 size=N/A time=00:05:46.51 bitrate=N/A speed=3.63x    frame= 8349 fps= 87 q=-0.0 size=N/A time=00:05:48.22 bitrate=N/A speed=3.63x    frame= 8394 fps= 87 q=-0.0 size=N/A time=00:05:50.09 bitrate=N/A speed=3.63x    frame= 8438 fps= 87 q=-0.0 size=N/A time=00:05:51.93 bitrate=N/A speed=3.63x    frame= 8484 fps= 87 q=-0.0 size=N/A time=00:05:53.85 bitrate=N/A speed=3.63x    frame= 8528 fps= 87 q=-0.0 size=N/A time=00:05:55.68 bitrate=N/A speed=3.63x    frame= 8574 fps= 87 q=-0.0 size=N/A time=00:05:57.60 bitrate=N/A speed=3.63x    frame= 8618 fps= 87 q=-0.0 size=N/A time=00:05:59.44 bitrate=N/A speed=3.63x    frame= 8661 fps= 87 q=-0.0 size=N/A time=00:06:01.23 bitrate=N/A speed=3.63x    frame= 8706 fps= 87 q=-0.0 size=N/A time=00:06:03.11 bitrate=N/A speed=3.63x    frame= 8750 fps= 87 q=-0.0 size=N/A time=00:06:04.94 bitrate=N/A speed=3.63x    frame= 8795 fps= 87 q=-0.0 size=N/A time=00:06:06.82 bitrate=N/A speed=3.63x    frame= 8837 fps= 87 q=-0.0 size=N/A time=00:06:08.57 bitrate=N/A speed=3.63x    frame= 8885 fps= 87 q=-0.0 size=N/A time=00:06:10.57 bitrate=N/A speed=3.63x    frame= 8928 fps= 87 q=-0.0 size=N/A time=00:06:12.37 bitrate=N/A speed=3.63x    frame= 8974 fps= 87 q=-0.0 size=N/A time=00:06:14.29 bitrate=N/A speed=3.63x    frame= 9018 fps= 87 q=-0.0 size=N/A time=00:06:16.12 bitrate=N/A speed=3.63x    frame= 9063 fps= 87 q=-0.0 size=N/A time=00:06:18.00 bitrate=N/A speed=3.63x    frame= 9110 fps= 87 q=-0.0 size=N/A time=00:06:19.96 bitrate=N/A speed=3.63x    frame= 9156 fps= 87 q=-0.0 size=N/A time=00:06:21.88 bitrate=N/A speed=3.63x    frame= 9200 fps= 87 q=-0.0 size=N/A time=00:06:23.71 bitrate=N/A speed=3.63x    frame= 9245 fps= 87 q=-0.0 size=N/A time=00:06:25.59 bitrate=N/A speed=3.63x    frame= 9291 fps= 87 q=-0.0 size=N/A time=00:06:27.51 bitrate=N/A speed=3.63x    frame= 9335 fps= 87 q=-0.0 size=N/A time=00:06:29.34 bitrate=N/A speed=3.63x    frame= 9380 fps= 87 q=-0.0 size=N/A time=00:06:31.22 bitrate=N/A speed=3.63x    frame= 9424 fps= 87 q=-0.0 size=N/A time=00:06:33.05 bitrate=N/A speed=3.63x    frame= 9468 fps= 87 q=-0.0 size=N/A time=00:06:34.89 bitrate=N/A speed=3.63x    frame= 9514 fps= 87 q=-0.0 size=N/A time=00:06:36.81 bitrate=N/A speed=3.63x    frame= 9556 fps= 87 q=-0.0 size=N/A time=00:06:38.56 bitrate=N/A speed=3.63x    frame= 9600 fps= 87 q=-0.0 size=N/A time=00:06:40.40 bitrate=N/A speed=3.63x    frame= 9646 fps= 87 q=-0.0 size=N/A time=00:06:42.31 bitrate=N/A speed=3.63x    frame= 9691 fps= 87 q=-0.0 size=N/A time=00:06:44.19 bitrate=N/A speed=3.63x    frame= 9736 fps= 87 q=-0.0 size=N/A time=00:06:46.07 bitrate=N/A speed=3.63x    frame= 9780 fps= 87 q=-0.0 size=N/A time=00:06:47.90 bitrate=N/A speed=3.63x    frame= 9828 fps= 87 q=-0.0 size=N/A time=00:06:49.90 bitrate=N/A speed=3.63x    frame= 9873 fps= 87 q=-0.0 size=N/A time=00:06:51.78 bitrate=N/A speed=3.63x    frame= 9919 fps= 87 q=-0.0 size=N/A time=00:06:53.70 bitrate=N/A speed=3.63x    frame= 9966 fps= 87 q=-0.0 size=N/A time=00:06:55.66 bitrate=N/A speed=3.63x    frame=10010 fps= 87 q=-0.0 size=N/A time=00:06:57.50 bitrate=N/A speed=3.63x    frame=10053 fps= 87 q=-0.0 size=N/A time=00:06:59.29 bitrate=N/A speed=3.63x    frame=10098 fps= 87 q=-0.0 size=N/A time=00:07:01.17 bitrate=N/A speed=3.63x    frame=10140 fps= 87 q=-0.0 size=N/A time=00:07:02.92 bitrate=N/A speed=3.63x    frame=10186 fps= 87 q=-0.0 size=N/A time=00:07:04.84 bitrate=N/A speed=3.63x    frame=10232 fps= 87 q=-0.0 size=N/A time=00:07:06.75 bitrate=N/A speed=3.63x    frame=10274 fps= 87 q=-0.0 size=N/A time=00:07:08.51 bitrate=N/A speed=3.63x    frame=10320 fps= 87 q=-0.0 size=N/A time=00:07:10.43 bitrate=N/A speed=3.63x    frame=10362 fps= 87 q=-0.0 size=N/A time=00:07:12.18 bitrate=N/A speed=3.63x    frame=10407 fps= 87 q=-0.0 size=N/A time=00:07:14.05 bitrate=N/A speed=3.63x    frame=10452 fps= 87 q=-0.0 size=N/A time=00:07:15.93 bitrate=N/A speed=3.63x    frame=10494 fps= 87 q=-0.0 size=N/A time=00:07:17.68 bitrate=N/A speed=3.62x    frame=10537 fps= 87 q=-0.0 size=N/A time=00:07:19.48 bitrate=N/A speed=3.62x    frame=10582 fps= 87 q=-0.0 size=N/A time=00:07:21.35 bitrate=N/A speed=3.62x    frame=10626 fps= 87 q=-0.0 size=N/A time=00:07:23.19 bitrate=N/A speed=3.62x    frame=10671 fps= 87 q=-0.0 size=N/A time=00:07:25.06 bitrate=N/A speed=3.62x    frame=10716 fps= 87 q=-0.0 size=N/A time=00:07:26.94 bitrate=N/A speed=3.62x    frame=10759 fps= 87 q=-0.0 size=N/A time=00:07:28.73 bitrate=N/A speed=3.62x    frame=10803 fps= 87 q=-0.0 size=N/A time=00:07:30.57 bitrate=N/A speed=3.62x    frame=10848 fps= 87 q=-0.0 size=N/A time=00:07:32.45 bitrate=N/A speed=3.62x    frame=10892 fps= 87 q=-0.0 size=N/A time=00:07:34.28 bitrate=N/A speed=3.62x    frame=10938 fps= 87 q=-0.0 size=N/A time=00:07:36.20 bitrate=N/A speed=3.62x    frame=10982 fps= 87 q=-0.0 size=N/A time=00:07:38.04 bitrate=N/A speed=3.62x    frame=11024 fps= 87 q=-0.0 size=N/A time=00:07:39.79 bitrate=N/A speed=3.62x    frame=11069 fps= 87 q=-0.0 size=N/A time=00:07:41.66 bitrate=N/A speed=3.62x    frame=11114 fps= 87 q=-0.0 size=N/A time=00:07:43.54 bitrate=N/A speed=3.62x    frame=11160 fps= 87 q=-0.0 size=N/A time=00:07:45.46 bitrate=N/A speed=3.62x    frame=11206 fps= 87 q=-0.0 size=N/A time=00:07:47.38 bitrate=N/A speed=3.62x    frame=11250 fps= 87 q=-0.0 size=N/A time=00:07:49.21 bitrate=N/A speed=3.62x    frame=11293 fps= 87 q=-0.0 size=N/A time=00:07:51.01 bitrate=N/A speed=3.62x    frame=11337 fps= 87 q=-0.0 size=N/A time=00:07:52.84 bitrate=N/A speed=3.62x    frame=11381 fps= 87 q=-0.0 size=N/A time=00:07:54.68 bitrate=N/A speed=3.62x    frame=11425 fps= 87 q=-0.0 size=N/A time=00:07:56.51 bitrate=N/A speed=3.62x    frame=11468 fps= 87 q=-0.0 size=N/A time=00:07:58.31 bitrate=N/A speed=3.62x    frame=11511 fps= 87 q=-0.0 size=N/A time=00:08:00.10 bitrate=N/A speed=3.62x    frame=11557 fps= 87 q=-0.0 size=N/A time=00:08:02.02 bitrate=N/A speed=3.62x    frame=11602 fps= 87 q=-0.0 size=N/A time=00:08:03.90 bitrate=N/A speed=3.62x    frame=11644 fps= 87 q=-0.0 size=N/A time=00:08:05.65 bitrate=N/A speed=3.62x    frame=11687 fps= 87 q=-0.0 size=N/A time=00:08:07.44 bitrate=N/A speed=3.62x    frame=11732 fps= 87 q=-0.0 size=N/A time=00:08:09.32 bitrate=N/A speed=3.62x    frame=11778 fps= 87 q=-0.0 size=N/A time=00:08:11.24 bitrate=N/A speed=3.62x    frame=11821 fps= 87 q=-0.0 size=N/A time=00:08:13.03 bitrate=N/A speed=3.62x    frame=11864 fps= 87 q=-0.0 size=N/A time=00:08:14.82 bitrate=N/A speed=3.62x    frame=11909 fps= 87 q=-0.0 size=N/A time=00:08:16.70 bitrate=N/A speed=3.62x    frame=11952 fps= 87 q=-0.0 size=N/A time=00:08:18.49 bitrate=N/A speed=3.62x    frame=11994 fps= 87 q=-0.0 size=N/A time=00:08:20.24 bitrate=N/A speed=3.62x    frame=12038 fps= 87 q=-0.0 size=N/A time=00:08:22.08 bitrate=N/A speed=3.62x    frame=12080 fps= 87 q=-0.0 size=N/A time=00:08:23.83 bitrate=N/A speed=3.62x    frame=12129 fps= 87 q=-0.0 size=N/A time=00:08:25.88 bitrate=N/A speed=3.62x    frame=12174 fps= 87 q=-0.0 size=N/A time=00:08:27.75 bitrate=N/A speed=3.62x    frame=12217 fps= 87 q=-0.0 size=N/A time=00:08:29.59 bitrate=N/A speed=3.62x    frame=12264 fps= 87 q=-0.0 size=N/A time=00:08:31.51 bitrate=N/A speed=3.62x    frame=12309 fps= 87 q=-0.0 size=N/A time=00:08:33.38 bitrate=N/A speed=3.62x    frame=12352 fps= 87 q=-0.0 size=N/A time=00:08:35.18 bitrate=N/A speed=3.62x    frame=12397 fps= 87 q=-0.0 size=N/A time=00:08:37.05 bitrate=N/A speed=3.62x    frame=12442 fps= 87 q=-0.0 size=N/A time=00:08:38.93 bitrate=N/A speed=3.62x    frame=12486 fps= 87 q=-0.0 size=N/A time=00:08:40.77 bitrate=N/A speed=3.62x    frame=12530 fps= 87 q=-0.0 size=N/A time=00:08:42.60 bitrate=N/A speed=3.62x    frame=12575 fps= 87 q=-0.0 size=N/A time=00:08:44.48 bitrate=N/A speed=3.62x    frame=12619 fps= 87 q=-0.0 size=N/A time=00:08:46.31 bitrate=N/A speed=3.62x    frame=12664 fps= 87 q=-0.0 size=N/A time=00:08:48.19 bitrate=N/A speed=3.62x    frame=12708 fps= 87 q=-0.0 size=N/A time=00:08:50.02 bitrate=N/A speed=3.62x    frame=12751 fps= 87 q=-0.0 size=N/A time=00:08:51.82 bitrate=N/A speed=3.62x    frame=12798 fps= 87 q=-0.0 size=N/A time=00:08:53.78 bitrate=N/A speed=3.62x    frame=12844 fps= 87 q=-0.0 size=N/A time=00:08:55.70 bitrate=N/A speed=3.62x    frame=12887 fps= 87 q=-0.0 size=N/A time=00:08:57.49 bitrate=N/A speed=3.62x    frame=12931 fps= 87 q=-0.0 size=N/A time=00:08:59.33 bitrate=N/A speed=3.62x    frame=12974 fps= 87 q=-0.0 size=N/A time=00:09:01.12 bitrate=N/A speed=3.62x    frame=13016 fps= 87 q=-0.0 size=N/A time=00:09:02.87 bitrate=N/A speed=3.61x    frame=13058 fps= 87 q=-0.0 size=N/A time=00:09:04.62 bitrate=N/A speed=3.61x    frame=13103 fps= 87 q=-0.0 size=N/A time=00:09:06.50 bitrate=N/A speed=3.61x    frame=13149 fps= 87 q=-0.0 size=N/A time=00:09:08.42 bitrate=N/A speed=3.61x    frame=13194 fps= 87 q=-0.0 size=N/A time=00:09:10.29 bitrate=N/A speed=3.61x    frame=13239 fps= 87 q=-0.0 size=N/A time=00:09:12.17 bitrate=N/A speed=3.62x    frame=13286 fps= 87 q=-0.0 size=N/A time=00:09:14.13 bitrate=N/A speed=3.62x    frame=13331 fps= 87 q=-0.0 size=N/A time=00:09:16.01 bitrate=N/A speed=3.62x    frame=13376 fps= 87 q=-0.0 size=N/A time=00:09:17.89 bitrate=N/A speed=3.62x    frame=13418 fps= 87 q=-0.0 size=N/A time=00:09:19.64 bitrate=N/A speed=3.61x    frame=13463 fps= 87 q=-0.0 size=N/A time=00:09:21.51 bitrate=N/A speed=3.62x    frame=13510 fps= 87 q=-0.0 size=N/A time=00:09:23.47 bitrate=N/A speed=3.62x    frame=13555 fps= 87 q=-0.0 size=N/A time=00:09:25.35 bitrate=N/A speed=3.62x    frame=13600 fps= 87 q=-0.0 size=N/A time=00:09:27.23 bitrate=N/A speed=3.62x    frame=13645 fps= 87 q=-0.0 size=N/A time=00:09:29.11 bitrate=N/A speed=3.62x    frame=13691 fps= 87 q=-0.0 size=N/A time=00:09:31.02 bitrate=N/A speed=3.62x    frame=13737 fps= 87 q=-0.0 size=N/A time=00:09:32.94 bitrate=N/A speed=3.62x    frame=13783 fps= 87 q=-0.0 size=N/A time=00:09:34.86 bitrate=N/A speed=3.62x    frame=13827 fps= 87 q=-0.0 size=N/A time=00:09:36.70 bitrate=N/A speed=3.62x    frame=13871 fps= 87 q=-0.0 size=N/A time=00:09:38.53 bitrate=N/A speed=3.62x    frame=13915 fps= 87 q=-0.0 size=N/A time=00:09:40.37 bitrate=N/A speed=3.62x    frame=13958 fps= 87 q=-0.0 size=N/A time=00:09:42.16 bitrate=N/A speed=3.62x    frame=14000 fps= 87 q=-0.0 size=N/A time=00:09:43.91 bitrate=N/A speed=3.61x    frame=14044 fps= 87 q=-0.0 size=N/A time=00:09:45.75 bitrate=N/A speed=3.61x    frame=14087 fps= 87 q=-0.0 size=N/A time=00:09:47.54 bitrate=N/A speed=3.61x    frame=14129 fps= 87 q=-0.0 size=N/A time=00:09:49.29 bitrate=N/A speed=3.61x    frame=14176 fps= 87 q=-0.0 size=N/A time=00:09:51.25 bitrate=N/A speed=3.61x    frame=14218 fps= 87 q=-0.0 size=N/A time=00:09:53.00 bitrate=N/A speed=3.61x    frame=14260 fps= 87 q=-0.0 size=N/A time=00:09:54.76 bitrate=N/A speed=3.61x    frame=14306 fps= 87 q=-0.0 size=N/A time=00:09:56.67 bitrate=N/A speed=3.61x    frame=14352 fps= 87 q=-0.0 size=N/A time=00:09:58.59 bitrate=N/A speed=3.61x    frame=14397 fps= 87 q=-0.0 size=N/A time=00:10:00.47 bitrate=N/A speed=3.61x    frame=14442 fps= 87 q=-0.0 size=N/A time=00:10:02.35 bitrate=N/A speed=3.61x    frame=14488 fps= 87 q=-0.0 size=N/A time=00:10:04.27 bitrate=N/A speed=3.61x    frame=14533 fps= 87 q=-0.0 size=N/A time=00:10:06.14 bitrate=N/A speed=3.61x    frame=14578 fps= 87 q=-0.0 size=N/A time=00:10:08.02 bitrate=N/A speed=3.61x    frame=14619 fps= 87 q=-0.0 size=N/A time=00:10:09.73 bitrate=N/A speed=3.61x    frame=14665 fps= 87 q=-0.0 size=N/A time=00:10:11.65 bitrate=N/A speed=3.61x    frame=14709 fps= 87 q=-0.0 size=N/A time=00:10:13.48 bitrate=N/A speed=3.61x    frame=14754 fps= 87 q=-0.0 size=N/A time=00:10:15.36 bitrate=N/A speed=3.61x    frame=14798 fps= 87 q=-0.0 size=N/A time=00:10:17.19 bitrate=N/A speed=3.61x    frame=14843 fps= 87 q=-0.0 size=N/A time=00:10:19.07 bitrate=N/A speed=3.61x    frame=14886 fps= 87 q=-0.0 size=N/A time=00:10:20.87 bitrate=N/A speed=3.61x    frame=14931 fps= 87 q=-0.0 size=N/A time=00:10:22.74 bitrate=N/A speed=3.61x    frame=14975 fps= 87 q=-0.0 size=N/A time=00:10:24.58 bitrate=N/A speed=3.61x    frame=15022 fps= 87 q=-0.0 size=N/A time=00:10:26.54 bitrate=N/A speed=3.61x    frame=15066 fps= 87 q=-0.0 size=N/A time=00:10:28.37 bitrate=N/A speed=3.61x    frame=15112 fps= 87 q=-0.0 size=N/A time=00:10:30.29 bitrate=N/A speed=3.61x    frame=15159 fps= 87 q=-0.0 size=N/A time=00:10:32.25 bitrate=N/A speed=3.61x    frame=15206 fps= 87 q=-0.0 size=N/A time=00:10:34.21 bitrate=N/A speed=3.61x    frame=15249 fps= 87 q=-0.0 size=N/A time=00:10:36.01 bitrate=N/A speed=3.61x    frame=15294 fps= 87 q=-0.0 size=N/A time=00:10:37.88 bitrate=N/A speed=3.61x    frame=15341 fps= 87 q=-0.0 size=N/A time=00:10:39.84 bitrate=N/A speed=3.61x    frame=15384 fps= 87 q=-0.0 size=N/A time=00:10:41.64 bitrate=N/A speed=3.61x    frame=15429 fps= 87 q=-0.0 size=N/A time=00:10:43.51 bitrate=N/A speed=3.61x    frame=15470 fps= 87 q=-0.0 size=N/A time=00:10:45.22 bitrate=N/A speed=3.61x    frame=15515 fps= 87 q=-0.0 size=N/A time=00:10:47.10 bitrate=N/A speed=3.61x    frame=15558 fps= 87 q=-0.0 size=N/A time=00:10:48.89 bitrate=N/A speed=3.61x    frame=15601 fps= 87 q=-0.0 size=N/A time=00:10:50.69 bitrate=N/A speed=3.61x    frame=15644 fps= 87 q=-0.0 size=N/A time=00:10:52.48 bitrate=N/A speed=3.61x    frame=15688 fps= 87 q=-0.0 size=N/A time=00:10:54.32 bitrate=N/A speed=3.61x    frame=15734 fps= 87 q=-0.0 size=N/A time=00:10:56.23 bitrate=N/A speed=3.61x    frame=15778 fps= 87 q=-0.0 size=N/A time=00:10:58.07 bitrate=N/A speed=3.61x    frame=15821 fps= 87 q=-0.0 size=N/A time=00:10:59.86 bitrate=N/A speed=3.61x    frame=15866 fps= 87 q=-0.0 size=N/A time=00:11:01.74 bitrate=N/A speed=3.61x    frame=15913 fps= 87 q=-0.0 size=N/A time=00:11:03.70 bitrate=N/A speed=3.61x    frame=15956 fps= 87 q=-0.0 size=N/A time=00:11:05.49 bitrate=N/A speed=3.61x    frame=16000 fps= 87 q=-0.0 size=N/A time=00:11:07.33 bitrate=N/A speed=3.61x    frame=16044 fps= 87 q=-0.0 size=N/A time=00:11:09.16 bitrate=N/A speed=3.61x    frame=16089 fps= 87 q=-0.0 size=N/A time=00:11:11.04 bitrate=N/A speed=3.61x    frame=16135 fps= 87 q=-0.0 size=N/A time=00:11:12.96 bitrate=N/A speed=3.61x    frame=16179 fps= 87 q=-0.0 size=N/A time=00:11:14.79 bitrate=N/A speed=3.61x    frame=16224 fps= 87 q=-0.0 size=N/A time=00:11:16.67 bitrate=N/A speed=3.61x    frame=16270 fps= 87 q=-0.0 size=N/A time=00:11:18.59 bitrate=N/A speed=3.61x    frame=16316 fps= 87 q=-0.0 size=N/A time=00:11:20.51 bitrate=N/A speed=3.61x    frame=16362 fps= 87 q=-0.0 size=N/A time=00:11:22.43 bitrate=N/A speed=3.61x    frame=16406 fps= 87 q=-0.0 size=N/A time=00:11:24.26 bitrate=N/A speed=3.61x    frame=16451 fps= 87 q=-0.0 size=N/A time=00:11:26.14 bitrate=N/A speed=3.61x    frame=16496 fps= 87 q=-0.0 size=N/A time=00:11:28.02 bitrate=N/A speed=3.61x    frame=16542 fps= 87 q=-0.0 size=N/A time=00:11:29.93 bitrate=N/A speed=3.61x    frame=16588 fps= 87 q=-0.0 size=N/A time=00:11:31.85 bitrate=N/A speed=3.61x    frame=16633 fps= 87 q=-0.0 size=N/A time=00:11:33.73 bitrate=N/A speed=3.61x    frame=16675 fps= 87 q=-0.0 size=N/A time=00:11:35.48 bitrate=N/A speed=3.61x    frame=16717 fps= 87 q=-0.0 size=N/A time=00:11:37.23 bitrate=N/A speed=3.61x    frame=16762 fps= 87 q=-0.0 size=N/A time=00:11:39.11 bitrate=N/A speed=3.61x    frame=16806 fps= 87 q=-0.0 size=N/A time=00:11:40.95 bitrate=N/A speed=3.61x    frame=16852 fps= 87 q=-0.0 size=N/A time=00:11:42.86 bitrate=N/A speed=3.61x    frame=16896 fps= 87 q=-0.0 size=N/A time=00:11:44.70 bitrate=N/A speed=3.61x    frame=16940 fps= 87 q=-0.0 size=N/A time=00:11:46.53 bitrate=N/A speed=3.61x    frame=16986 fps= 87 q=-0.0 size=N/A time=00:11:48.45 bitrate=N/A speed=3.61x    frame=17030 fps= 87 q=-0.0 size=N/A time=00:11:50.29 bitrate=N/A speed=3.61x    frame=17074 fps= 87 q=-0.0 size=N/A time=00:11:52.12 bitrate=N/A speed=3.61x    frame=17116 fps= 87 q=-0.0 size=N/A time=00:11:53.87 bitrate=N/A speed=3.61x    frame=17160 fps= 87 q=-0.0 size=N/A time=00:11:55.71 bitrate=N/A speed=3.61x    frame=17204 fps= 87 q=-0.0 size=N/A time=00:11:57.55 bitrate=N/A speed=3.61x    frame=17251 fps= 87 q=-0.0 size=N/A time=00:11:59.51 bitrate=N/A speed=3.61x    frame=17295 fps= 87 q=-0.0 size=N/A time=00:12:01.34 bitrate=N/A speed=3.61x    frame=17339 fps= 87 q=-0.0 size=N/A time=00:12:03.18 bitrate=N/A speed=3.61x    frame=17386 fps= 87 q=-0.0 size=N/A time=00:12:05.14 bitrate=N/A speed=3.61x    frame=17428 fps= 87 q=-0.0 size=N/A time=00:12:06.89 bitrate=N/A speed=3.61x    frame=17469 fps= 87 q=-0.0 size=N/A time=00:12:08.60 bitrate=N/A speed=3.61x    frame=17512 fps= 87 q=-0.0 size=N/A time=00:12:10.39 bitrate=N/A speed=3.61x    frame=17559 fps= 87 q=-0.0 size=N/A time=00:12:12.35 bitrate=N/A speed=3.61x    frame=17602 fps= 87 q=-0.0 size=N/A time=00:12:14.15 bitrate=N/A speed=3.61x    frame=17644 fps= 87 q=-0.0 size=N/A time=00:12:15.90 bitrate=N/A speed=3.61x    frame=17686 fps= 87 q=-0.0 size=N/A time=00:12:17.65 bitrate=N/A speed=3.61x    frame=17731 fps= 87 q=-0.0 size=N/A time=00:12:19.53 bitrate=N/A speed=3.61x    frame=17775 fps= 87 q=-0.0 size=N/A time=00:12:21.36 bitrate=N/A speed=3.61x    frame=17820 fps= 87 q=-0.0 size=N/A time=00:12:23.24 bitrate=N/A speed=3.61x    frame=17867 fps= 87 q=-0.0 size=N/A time=00:12:25.20 bitrate=N/A speed=3.61x    frame=17913 fps= 87 q=-0.0 size=N/A time=00:12:27.12 bitrate=N/A speed=3.61x    frame=17961 fps= 87 q=-0.0 size=N/A time=00:12:29.12 bitrate=N/A speed=3.61x    frame=18006 fps= 87 q=-0.0 size=N/A time=00:12:31.00 bitrate=N/A speed=3.61x    frame=18050 fps= 87 q=-0.0 size=N/A time=00:12:32.83 bitrate=N/A speed=3.61x    frame=18096 fps= 87 q=-0.0 size=N/A time=00:12:34.75 bitrate=N/A speed=3.61x    frame=18140 fps= 87 q=-0.0 size=N/A time=00:12:36.58 bitrate=N/A speed=3.61x    frame=18184 fps= 87 q=-0.0 size=N/A time=00:12:38.42 bitrate=N/A speed=3.61x    frame=18231 fps= 87 q=-0.0 size=N/A time=00:12:40.38 bitrate=N/A speed=3.61x    frame=18273 fps= 87 q=-0.0 size=N/A time=00:12:42.13 bitrate=N/A speed=3.61x    frame=18319 fps= 87 q=-0.0 size=N/A time=00:12:44.05 bitrate=N/A speed=3.61x    frame=18364 fps= 87 q=-0.0 size=N/A time=00:12:45.93 bitrate=N/A speed=3.61x    frame=18409 fps= 87 q=-0.0 size=N/A time=00:12:47.80 bitrate=N/A speed=3.61x    frame=18453 fps= 87 q=-0.0 size=N/A time=00:12:49.64 bitrate=N/A speed=3.61x    frame=18498 fps= 87 q=-0.0 size=N/A time=00:12:51.52 bitrate=N/A speed=3.61x    frame=18541 fps= 87 q=-0.0 size=N/A time=00:12:53.31 bitrate=N/A speed=3.61x    frame=18586 fps= 87 q=-0.0 size=N/A time=00:12:55.19 bitrate=N/A speed=3.61x    frame=18630 fps= 87 q=-0.0 size=N/A time=00:12:57.02 bitrate=N/A speed=3.61x    frame=18674 fps= 87 q=-0.0 size=N/A time=00:12:58.86 bitrate=N/A speed=3.61x    frame=18720 fps= 87 q=-0.0 size=N/A time=00:13:00.78 bitrate=N/A speed=3.61x    frame=18762 fps= 87 q=-0.0 size=N/A time=00:13:02.53 bitrate=N/A speed=3.61x    frame=18809 fps= 87 q=-0.0 size=N/A time=00:13:04.49 bitrate=N/A speed=3.61x    frame=18853 fps= 87 q=-0.0 size=N/A time=00:13:06.32 bitrate=N/A speed=3.61x    frame=18897 fps= 87 q=-0.0 size=N/A time=00:13:08.16 bitrate=N/A speed=3.61x    frame=18942 fps= 87 q=-0.0 size=N/A time=00:13:10.03 bitrate=N/A speed=3.61x    frame=18987 fps= 87 q=-0.0 size=N/A time=00:13:11.91 bitrate=N/A speed=3.61x    frame=19030 fps= 87 q=-0.0 size=N/A time=00:13:13.70 bitrate=N/A speed=3.61x    frame=19077 fps= 87 q=-0.0 size=N/A time=00:13:15.66 bitrate=N/A speed=3.61x    frame=19122 fps= 87 q=-0.0 size=N/A time=00:13:17.54 bitrate=N/A speed=3.61x    frame=19165 fps= 87 q=-0.0 size=N/A time=00:13:19.34 bitrate=N/A speed=3.61x    frame=19210 fps= 87 q=-0.0 size=N/A time=00:13:21.21 bitrate=N/A speed=3.61x    frame=19251 fps= 87 q=-0.0 size=N/A time=00:13:22.92 bitrate=N/A speed=3.61x    frame=19295 fps= 87 q=-0.0 size=N/A time=00:13:24.76 bitrate=N/A speed=3.61x    frame=19343 fps= 87 q=-0.0 size=N/A time=00:13:26.76 bitrate=N/A speed=3.61x    frame=19386 fps= 87 q=-0.0 size=N/A time=00:13:28.55 bitrate=N/A speed=3.61x    frame=19430 fps= 87 q=-0.0 size=N/A time=00:13:30.39 bitrate=N/A speed=3.61x    frame=19475 fps= 87 q=-0.0 size=N/A time=00:13:32.26 bitrate=N/A speed=3.61x    frame=19520 fps= 87 q=-0.0 size=N/A time=00:13:34.14 bitrate=N/A speed=3.61x    frame=19563 fps= 87 q=-0.0 size=N/A time=00:13:35.94 bitrate=N/A speed=3.61x    frame=19608 fps= 87 q=-0.0 size=N/A time=00:13:37.81 bitrate=N/A speed=3.61x    frame=19651 fps= 87 q=-0.0 size=N/A time=00:13:39.61 bitrate=N/A speed=3.61x    frame=19696 fps= 87 q=-0.0 size=N/A time=00:13:41.48 bitrate=N/A speed=3.61x    frame=19742 fps= 87 q=-0.0 size=N/A time=00:13:43.40 bitrate=N/A speed=3.61x    frame=19786 fps= 87 q=-0.0 size=N/A time=00:13:45.24 bitrate=N/A speed=3.61x    frame=19826 fps= 87 q=-0.0 size=N/A time=00:13:46.90 bitrate=N/A speed=3.61x    frame=19865 fps= 87 q=-0.0 size=N/A time=00:13:48.53 bitrate=N/A speed=3.61x    frame=19909 fps= 86 q=-0.0 size=N/A time=00:13:50.37 bitrate=N/A speed=3.61x    frame=19951 fps= 86 q=-0.0 size=N/A time=00:13:52.12 bitrate=N/A speed=3.61x    frame=19993 fps= 86 q=-0.0 size=N/A time=00:13:53.87 bitrate=N/A speed=3.61x    frame=20036 fps= 86 q=-0.0 size=N/A time=00:13:55.66 bitrate=N/A speed=3.61x    frame=20079 fps= 86 q=-0.0 size=N/A time=00:13:57.46 bitrate=N/A speed=3.61x    frame=20121 fps= 86 q=-0.0 size=N/A time=00:13:59.21 bitrate=N/A speed=3.61x    frame=20163 fps= 86 q=-0.0 size=N/A time=00:14:00.96 bitrate=N/A speed=3.61x    frame=20208 fps= 86 q=-0.0 size=N/A time=00:14:02.84 bitrate=N/A speed=3.61x    frame=20251 fps= 86 q=-0.0 size=N/A time=00:14:04.63 bitrate=N/A speed= 3.6x    frame=20298 fps= 86 q=-0.0 size=N/A time=00:14:06.59 bitrate=N/A speed=3.61x    frame=20344 fps= 86 q=-0.0 size=N/A time=00:14:08.51 bitrate=N/A speed=3.61x    frame=20389 fps= 86 q=-0.0 size=N/A time=00:14:10.39 bitrate=N/A speed=3.61x    frame=20434 fps= 86 q=-0.0 size=N/A time=00:14:12.26 bitrate=N/A speed=3.61x    frame=20478 fps= 86 q=-0.0 size=N/A time=00:14:14.10 bitrate=N/A speed=3.61x    frame=20523 fps= 86 q=-0.0 size=N/A time=00:14:15.98 bitrate=N/A speed=3.61x    frame=20567 fps= 86 q=-0.0 size=N/A time=00:14:17.81 bitrate=N/A speed=3.61x    frame=20609 fps= 86 q=-0.0 size=N/A time=00:14:19.56 bitrate=N/A speed=3.61x    frame=20653 fps= 86 q=-0.0 size=N/A time=00:14:21.40 bitrate=N/A speed=3.61x    frame=20694 fps= 86 q=-0.0 size=N/A time=00:14:23.11 bitrate=N/A speed= 3.6x    frame=20739 fps= 86 q=-0.0 size=N/A time=00:14:24.98 bitrate=N/A speed= 3.6x    frame=20783 fps= 86 q=-0.0 size=N/A time=00:14:26.82 bitrate=N/A speed= 3.6x    frame=20824 fps= 86 q=-0.0 size=N/A time=00:14:28.53 bitrate=N/A speed= 3.6x    frame=20869 fps= 86 q=-0.0 size=N/A time=00:14:30.41 bitrate=N/A speed= 3.6x    frame=20912 fps= 86 q=-0.0 size=N/A time=00:14:32.20 bitrate=N/A speed= 3.6x    frame=20957 fps= 86 q=-0.0 size=N/A time=00:14:34.08 bitrate=N/A speed= 3.6x    frame=21003 fps= 86 q=-0.0 size=N/A time=00:14:36.00 bitrate=N/A speed= 3.6x    frame=21044 fps= 86 q=-0.0 size=N/A time=00:14:37.71 bitrate=N/A speed= 3.6x    frame=21088 fps= 86 q=-0.0 size=N/A time=00:14:39.54 bitrate=N/A speed= 3.6x    frame=21131 fps= 86 q=-0.0 size=N/A time=00:14:41.33 bitrate=N/A speed= 3.6x    frame=21175 fps= 86 q=-0.0 size=N/A time=00:14:43.17 bitrate=N/A speed= 3.6x    frame=21221 fps= 86 q=-0.0 size=N/A time=00:14:45.09 bitrate=N/A speed= 3.6x    frame=21266 fps= 86 q=-0.0 size=N/A time=00:14:46.96 bitrate=N/A speed= 3.6x    frame=21310 fps= 86 q=-0.0 size=N/A time=00:14:48.80 bitrate=N/A speed= 3.6x    frame=21358 fps= 86 q=-0.0 size=N/A time=00:14:50.80 bitrate=N/A speed= 3.6x    frame=21400 fps= 86 q=-0.0 size=N/A time=00:14:52.55 bitrate=N/A speed= 3.6x    frame=21442 fps= 86 q=-0.0 size=N/A time=00:14:54.31 bitrate=N/A speed= 3.6x    frame=21491 fps= 86 q=-0.0 size=N/A time=00:14:56.35 bitrate=N/A speed= 3.6x    frame=21535 fps= 86 q=-0.0 size=N/A time=00:14:58.18 bitrate=N/A speed= 3.6x    frame=21580 fps= 86 q=-0.0 size=N/A time=00:15:00.06 bitrate=N/A speed= 3.6x    frame=21628 fps= 86 q=-0.0 size=N/A time=00:15:02.06 bitrate=N/A speed= 3.6x    frame=21675 fps= 86 q=-0.0 size=N/A time=00:15:04.02 bitrate=N/A speed= 3.6x    frame=21720 fps= 86 q=-0.0 size=N/A time=00:15:05.90 bitrate=N/A speed= 3.6x    frame=21765 fps= 86 q=-0.0 size=N/A time=00:15:07.78 bitrate=N/A speed= 3.6x    frame=21812 fps= 86 q=-0.0 size=N/A time=00:15:09.74 bitrate=N/A speed= 3.6x    frame=21855 fps= 86 q=-0.0 size=N/A time=00:15:11.53 bitrate=N/A speed= 3.6x    frame=21902 fps= 86 q=-0.0 size=N/A time=00:15:13.49 bitrate=N/A speed=3.61x    frame=21945 fps= 86 q=-0.0 size=N/A time=00:15:15.28 bitrate=N/A speed= 3.6x    frame=21992 fps= 86 q=-0.0 size=N/A time=00:15:17.24 bitrate=N/A speed=3.61x    frame=22038 fps= 86 q=-0.0 size=N/A time=00:15:19.16 bitrate=N/A speed=3.61x    frame=22083 fps= 86 q=-0.0 size=N/A time=00:15:21.04 bitrate=N/A speed=3.61x    frame=22127 fps= 86 q=-0.0 size=N/A time=00:15:22.88 bitrate=N/A speed=3.61x    frame=22173 fps= 86 q=-0.0 size=N/A time=00:15:24.79 bitrate=N/A speed=3.61x    frame=22216 fps= 86 q=-0.0 size=N/A time=00:15:26.59 bitrate=N/A speed=3.61x    frame=22262 fps= 86 q=-0.0 size=N/A time=00:15:28.51 bitrate=N/A speed=3.61x    frame=22306 fps= 86 q=-0.0 size=N/A time=00:15:30.34 bitrate=N/A speed=3.61x    frame=22347 fps= 86 q=-0.0 size=N/A time=00:15:32.05 bitrate=N/A speed=3.61x    frame=22393 fps= 86 q=-0.0 size=N/A time=00:15:33.97 bitrate=N/A speed=3.61x    frame=22435 fps= 86 q=-0.0 size=N/A time=00:15:35.72 bitrate=N/A speed= 3.6x    frame=22482 fps= 86 q=-0.0 size=N/A time=00:15:37.68 bitrate=N/A speed=3.61x    frame=22524 fps= 86 q=-0.0 size=N/A time=00:15:39.43 bitrate=N/A speed= 3.6x    frame=22569 fps= 86 q=-0.0 size=N/A time=00:15:41.31 bitrate=N/A speed= 3.6x    frame=22610 fps= 86 q=-0.0 size=N/A time=00:15:43.02 bitrate=N/A speed= 3.6x    frame=22650 fps= 86 q=-0.0 size=N/A time=00:15:44.69 bitrate=N/A speed= 3.6x    frame=22692 fps= 86 q=-0.0 size=N/A time=00:15:46.44 bitrate=N/A speed= 3.6x    frame=22734 fps= 86 q=-0.0 size=N/A time=00:15:48.19 bitrate=N/A speed= 3.6x    frame=22780 fps= 86 q=-0.0 size=N/A time=00:15:50.11 bitrate=N/A speed= 3.6x    frame=22824 fps= 86 q=-0.0 size=N/A time=00:15:51.95 bitrate=N/A speed= 3.6x    frame=22869 fps= 86 q=-0.0 size=N/A time=00:15:53.82 bitrate=N/A speed= 3.6x    frame=22916 fps= 86 q=-0.0 size=N/A time=00:15:55.78 bitrate=N/A speed= 3.6x    frame=22962 fps= 86 q=-0.0 size=N/A time=00:15:57.70 bitrate=N/A speed= 3.6x    frame=23009 fps= 86 q=-0.0 size=N/A time=00:15:59.66 bitrate=N/A speed= 3.6x    frame=23053 fps= 86 q=-0.0 size=N/A time=00:16:01.50 bitrate=N/A speed= 3.6x    frame=23098 fps= 86 q=-0.0 size=N/A time=00:16:03.37 bitrate=N/A speed= 3.6x    frame=23142 fps= 86 q=-0.0 size=N/A time=00:16:05.21 bitrate=N/A speed= 3.6x    frame=23186 fps= 86 q=-0.0 size=N/A time=00:16:07.04 bitrate=N/A speed= 3.6x    frame=23231 fps= 86 q=-0.0 size=N/A time=00:16:08.92 bitrate=N/A speed= 3.6x    frame=23274 fps= 86 q=-0.0 size=N/A time=00:16:10.71 bitrate=N/A speed= 3.6x    frame=23320 fps= 86 q=-0.0 size=N/A time=00:16:12.63 bitrate=N/A speed= 3.6x    frame=23366 fps= 86 q=-0.0 size=N/A time=00:16:14.55 bitrate=N/A speed= 3.6x    frame=23411 fps= 86 q=-0.0 size=N/A time=00:16:16.43 bitrate=N/A speed= 3.6x    frame=23455 fps= 86 q=-0.0 size=N/A time=00:16:18.26 bitrate=N/A speed= 3.6x    frame=23500 fps= 86 q=-0.0 size=N/A time=00:16:20.14 bitrate=N/A speed= 3.6x    frame=23543 fps= 86 q=-0.0 size=N/A time=00:16:21.93 bitrate=N/A speed= 3.6x    frame=23590 fps= 86 q=-0.0 size=N/A time=00:16:23.89 bitrate=N/A speed= 3.6x    frame=23634 fps= 86 q=-0.0 size=N/A time=00:16:25.73 bitrate=N/A speed= 3.6x    frame=23680 fps= 86 q=-0.0 size=N/A time=00:16:27.65 bitrate=N/A speed= 3.6x    frame=23724 fps= 86 q=-0.0 size=N/A time=00:16:29.48 bitrate=N/A speed= 3.6x    frame=23769 fps= 86 q=-0.0 size=N/A time=00:16:31.36 bitrate=N/A speed= 3.6x    frame=23813 fps= 86 q=-0.0 size=N/A time=00:16:33.20 bitrate=N/A speed= 3.6x    frame=23858 fps= 86 q=-0.0 size=N/A time=00:16:35.07 bitrate=N/A speed= 3.6x    frame=23901 fps= 86 q=-0.0 size=N/A time=00:16:36.87 bitrate=N/A speed= 3.6x    frame=23945 fps= 86 q=-0.0 size=N/A time=00:16:38.70 bitrate=N/A speed= 3.6x    frame=23990 fps= 86 q=-0.0 size=N/A time=00:16:40.58 bitrate=N/A speed= 3.6x    frame=24035 fps= 86 q=-0.0 size=N/A time=00:16:42.45 bitrate=N/A speed= 3.6x    frame=24082 fps= 86 q=-0.0 size=N/A time=00:16:44.42 bitrate=N/A speed= 3.6x    frame=24128 fps= 86 q=-0.0 size=N/A time=00:16:46.33 bitrate=N/A speed= 3.6x    frame=24174 fps= 86 q=-0.0 size=N/A time=00:16:48.25 bitrate=N/A speed= 3.6x    frame=24217 fps= 86 q=-0.0 size=N/A time=00:16:50.05 bitrate=N/A speed= 3.6x    frame=24261 fps= 86 q=-0.0 size=N/A time=00:16:51.88 bitrate=N/A speed= 3.6x    frame=24305 fps= 86 q=-0.0 size=N/A time=00:16:53.72 bitrate=N/A speed= 3.6x    frame=24351 fps= 86 q=-0.0 size=N/A time=00:16:55.63 bitrate=N/A speed= 3.6x    frame=24399 fps= 86 q=-0.0 size=N/A time=00:16:57.64 bitrate=N/A speed=3.61x    frame=24442 fps= 86 q=-0.0 size=N/A time=00:16:59.43 bitrate=N/A speed=3.61x    frame=24489 fps= 86 q=-0.0 size=N/A time=00:17:01.39 bitrate=N/A speed=3.61x    frame=24532 fps= 86 q=-0.0 size=N/A time=00:17:03.18 bitrate=N/A speed=3.61x    frame=24577 fps= 86 q=-0.0 size=N/A time=00:17:05.06 bitrate=N/A speed=3.61x    frame=24622 fps= 86 q=-0.0 size=N/A time=00:17:06.94 bitrate=N/A speed=3.61x    frame=24666 fps= 86 q=-0.0 size=N/A time=00:17:08.77 bitrate=N/A speed=3.61x    frame=24709 fps= 86 q=-0.0 size=N/A time=00:17:10.57 bitrate=N/A speed=3.61x    frame=24755 fps= 86 q=-0.0 size=N/A time=00:17:12.48 bitrate=N/A speed=3.61x    frame=24801 fps= 86 q=-0.0 size=N/A time=00:17:14.40 bitrate=N/A speed=3.61x    frame=24845 fps= 86 q=-0.0 size=N/A time=00:17:16.24 bitrate=N/A speed=3.61x    frame=24892 fps= 86 q=-0.0 size=N/A time=00:17:18.20 bitrate=N/A speed=3.61x    frame=24937 fps= 86 q=-0.0 size=N/A time=00:17:20.08 bitrate=N/A speed=3.61x    frame=24980 fps= 86 q=-0.0 size=N/A time=00:17:21.87 bitrate=N/A speed=3.61x    frame=25025 fps= 86 q=-0.0 size=N/A time=00:17:23.75 bitrate=N/A speed=3.61x    frame=25071 fps= 86 q=-0.0 size=N/A time=00:17:25.66 bitrate=N/A speed=3.61x    frame=25114 fps= 86 q=-0.0 size=N/A time=00:17:27.46 bitrate=N/A speed=3.61x    frame=25158 fps= 86 q=-0.0 size=N/A time=00:17:29.29 bitrate=N/A speed=3.61x    frame=25202 fps= 86 q=-0.0 size=N/A time=00:17:31.13 bitrate=N/A speed=3.61x    frame=25247 fps= 86 q=-0.0 size=N/A time=00:17:33.01 bitrate=N/A speed=3.61x    frame=25291 fps= 86 q=-0.0 size=N/A time=00:17:34.84 bitrate=N/A speed=3.61x    frame=25335 fps= 86 q=-0.0 size=N/A time=00:17:36.68 bitrate=N/A speed=3.61x    frame=25380 fps= 86 q=-0.0 size=N/A time=00:17:38.55 bitrate=N/A speed=3.61x    frame=25425 fps= 86 q=-0.0 size=N/A time=00:17:40.43 bitrate=N/A speed=3.61x    frame=25471 fps= 86 q=-0.0 size=N/A time=00:17:42.35 bitrate=N/A speed=3.61x    frame=25516 fps= 86 q=-0.0 size=N/A time=00:17:44.22 bitrate=N/A speed=3.61x    frame=25563 fps= 86 q=-0.0 size=N/A time=00:17:46.19 bitrate=N/A speed=3.61x    frame=25606 fps= 86 q=-0.0 size=N/A time=00:17:47.98 bitrate=N/A speed=3.61x    frame=25653 fps= 86 q=-0.0 size=N/A time=00:17:49.94 bitrate=N/A speed=3.61x    frame=25699 fps= 86 q=-0.0 size=N/A time=00:17:51.86 bitrate=N/A speed=3.61x    frame=25743 fps= 86 q=-0.0 size=N/A time=00:17:53.69 bitrate=N/A speed=3.61x    frame=25787 fps= 86 q=-0.0 size=N/A time=00:17:55.53 bitrate=N/A speed=3.61x    frame=25832 fps= 86 q=-0.0 size=N/A time=00:17:57.40 bitrate=N/A speed=3.61x    frame=25876 fps= 86 q=-0.0 size=N/A time=00:17:59.24 bitrate=N/A speed=3.61x    frame=25921 fps= 86 q=-0.0 size=N/A time=00:18:01.12 bitrate=N/A speed=3.61x    frame=25968 fps= 86 q=-0.0 size=N/A time=00:18:03.08 bitrate=N/A speed=3.61x    frame=26011 fps= 86 q=-0.0 size=N/A time=00:18:04.87 bitrate=N/A speed=3.61x    frame=26057 fps= 86 q=-0.0 size=N/A time=00:18:06.79 bitrate=N/A speed=3.61x    frame=26100 fps= 86 q=-0.0 size=N/A time=00:18:08.58 bitrate=N/A speed=3.61x    frame=26144 fps= 86 q=-0.0 size=N/A time=00:18:10.42 bitrate=N/A speed=3.61x    frame=26188 fps= 86 q=-0.0 size=N/A time=00:18:12.25 bitrate=N/A speed=3.61x    frame=26232 fps= 86 q=-0.0 size=N/A time=00:18:14.09 bitrate=N/A speed=3.61x    frame=26278 fps= 86 q=-0.0 size=N/A time=00:18:16.01 bitrate=N/A speed=3.61x    frame=26322 fps= 86 q=-0.0 size=N/A time=00:18:17.84 bitrate=N/A speed=3.61x    frame=26366 fps= 86 q=-0.0 size=N/A time=00:18:19.68 bitrate=N/A speed=3.61x    frame=26410 fps= 86 q=-0.0 size=N/A time=00:18:21.51 bitrate=N/A speed=3.61x    frame=26456 fps= 86 q=-0.0 size=N/A time=00:18:23.43 bitrate=N/A speed=3.61x    frame=26501 fps= 86 q=-0.0 size=N/A time=00:18:25.31 bitrate=N/A speed=3.61x    frame=26546 fps= 86 q=-0.0 size=N/A time=00:18:27.18 bitrate=N/A speed=3.61x    frame=26594 fps= 86 q=-0.0 size=N/A time=00:18:29.19 bitrate=N/A speed=3.61x    frame=26637 fps= 86 q=-0.0 size=N/A time=00:18:30.98 bitrate=N/A speed=3.61x    frame=26682 fps= 86 q=-0.0 size=N/A time=00:18:32.86 bitrate=N/A speed=3.61x    frame=26724 fps= 86 q=-0.0 size=N/A time=00:18:34.61 bitrate=N/A speed=3.61x    frame=26769 fps= 86 q=-0.0 size=N/A time=00:18:36.49 bitrate=N/A speed=3.61x    frame=26812 fps= 86 q=-0.0 size=N/A time=00:18:38.28 bitrate=N/A speed=3.61x    frame=26859 fps= 86 q=-0.0 size=N/A time=00:18:40.24 bitrate=N/A speed=3.61x    frame=26907 fps= 86 q=-0.0 size=N/A time=00:18:42.24 bitrate=N/A speed=3.61x    frame=26951 fps= 86 q=-0.0 size=N/A time=00:18:44.08 bitrate=N/A speed=3.61x    frame=26996 fps= 86 q=-0.0 size=N/A time=00:18:45.95 bitrate=N/A speed=3.61x    frame=27041 fps= 86 q=-0.0 size=N/A time=00:18:47.83 bitrate=N/A speed=3.61x    frame=27086 fps= 86 q=-0.0 size=N/A time=00:18:49.71 bitrate=N/A speed=3.61x    frame=27131 fps= 86 q=-0.0 size=N/A time=00:18:51.58 bitrate=N/A speed=3.61x    frame=27176 fps= 86 q=-0.0 size=N/A time=00:18:53.46 bitrate=N/A speed=3.61x    frame=27222 fps= 86 q=-0.0 size=N/A time=00:18:55.38 bitrate=N/A speed=3.61x    frame=27268 fps= 86 q=-0.0 size=N/A time=00:18:57.30 bitrate=N/A speed=3.61x    frame=27313 fps= 86 q=-0.0 size=N/A time=00:18:59.17 bitrate=N/A speed=3.61x    frame=27355 fps= 86 q=-0.0 size=N/A time=00:19:00.93 bitrate=N/A speed=3.61x    frame=27399 fps= 86 q=-0.0 size=N/A time=00:19:02.76 bitrate=N/A speed=3.61x    frame=27444 fps= 86 q=-0.0 size=N/A time=00:19:04.64 bitrate=N/A speed=3.61x    frame=27488 fps= 86 q=-0.0 size=N/A time=00:19:06.47 bitrate=N/A speed=3.61x    frame=27533 fps= 86 q=-0.0 size=N/A time=00:19:08.35 bitrate=N/A speed=3.61x    frame=27578 fps= 86 q=-0.0 size=N/A time=00:19:10.23 bitrate=N/A speed=3.61x    frame=27623 fps= 86 q=-0.0 size=N/A time=00:19:12.10 bitrate=N/A speed=3.61x    frame=27668 fps= 86 q=-0.0 size=N/A time=00:19:13.98 bitrate=N/A speed=3.61x    frame=27713 fps= 86 q=-0.0 size=N/A time=00:19:15.86 bitrate=N/A speed=3.61x    frame=27760 fps= 86 q=-0.0 size=N/A time=00:19:17.82 bitrate=N/A speed=3.61x    frame=27801 fps= 86 q=-0.0 size=N/A time=00:19:19.53 bitrate=N/A speed=3.61x    frame=27845 fps= 86 q=-0.0 size=N/A time=00:19:21.36 bitrate=N/A speed=3.61x    frame=27890 fps= 86 q=-0.0 size=N/A time=00:19:23.24 bitrate=N/A speed=3.61x    frame=27934 fps= 86 q=-0.0 size=N/A time=00:19:25.08 bitrate=N/A speed=3.61x    frame=27979 fps= 86 q=-0.0 size=N/A time=00:19:26.95 bitrate=N/A speed=3.61x    frame=28025 fps= 86 q=-0.0 size=N/A time=00:19:28.87 bitrate=N/A speed=3.61x    frame=28069 fps= 86 q=-0.0 size=N/A time=00:19:30.71 bitrate=N/A speed=3.61x    frame=28115 fps= 86 q=-0.0 size=N/A time=00:19:32.62 bitrate=N/A speed=3.61x    frame=28163 fps= 87 q=-0.0 size=N/A time=00:19:34.63 bitrate=N/A speed=3.61x    frame=28205 fps= 86 q=-0.0 size=N/A time=00:19:36.38 bitrate=N/A speed=3.61x    frame=28250 fps= 86 q=-0.0 size=N/A time=00:19:38.26 bitrate=N/A speed=3.61x    frame=28293 fps= 86 q=-0.0 size=N/A time=00:19:40.05 bitrate=N/A speed=3.61x    frame=28339 fps= 86 q=-0.0 size=N/A time=00:19:41.97 bitrate=N/A speed=3.61x    frame=28384 fps= 86 q=-0.0 size=N/A time=00:19:43.84 bitrate=N/A speed=3.61x    frame=28426 fps= 86 q=-0.0 size=N/A time=00:19:45.60 bitrate=N/A speed=3.61x    frame=28471 fps= 86 q=-0.0 size=N/A time=00:19:47.47 bitrate=N/A speed=3.61x    frame=28515 fps= 86 q=-0.0 size=N/A time=00:19:49.31 bitrate=N/A speed=3.61x    frame=28559 fps= 86 q=-0.0 size=N/A time=00:19:51.14 bitrate=N/A speed=3.61x    frame=28605 fps= 86 q=-0.0 size=N/A time=00:19:53.06 bitrate=N/A speed=3.61x    frame=28649 fps= 86 q=-0.0 size=N/A time=00:19:54.90 bitrate=N/A speed=3.61x    frame=28694 fps= 86 q=-0.0 size=N/A time=00:19:56.77 bitrate=N/A speed=3.61x    frame=28740 fps= 86 q=-0.0 size=N/A time=00:19:58.69 bitrate=N/A speed=3.61x    frame=28783 fps= 86 q=-0.0 size=N/A time=00:20:00.49 bitrate=N/A speed=3.61x    frame=28829 fps= 86 q=-0.0 size=N/A time=00:20:02.40 bitrate=N/A speed=3.61x    frame=28870 fps= 86 q=-0.0 size=N/A time=00:20:04.11 bitrate=N/A speed=3.61x    frame=28913 fps= 86 q=-0.0 size=N/A time=00:20:05.91 bitrate=N/A speed=3.61x    frame=28957 fps= 86 q=-0.0 size=N/A time=00:20:07.74 bitrate=N/A speed=3.61x    frame=29001 fps= 86 q=-0.0 size=N/A time=00:20:09.58 bitrate=N/A speed=3.61x    frame=29047 fps= 86 q=-0.0 size=N/A time=00:20:11.50 bitrate=N/A speed=3.61x    frame=29093 fps= 86 q=-0.0 size=N/A time=00:20:13.42 bitrate=N/A speed=3.61x    frame=29137 fps= 86 q=-0.0 size=N/A time=00:20:15.25 bitrate=N/A speed=3.61x    frame=29183 fps= 86 q=-0.0 size=N/A time=00:20:17.17 bitrate=N/A speed=3.61x    frame=29227 fps= 86 q=-0.0 size=N/A time=00:20:19.00 bitrate=N/A speed=3.61x    frame=29272 fps= 86 q=-0.0 size=N/A time=00:20:20.88 bitrate=N/A speed=3.61x    frame=29317 fps= 86 q=-0.0 size=N/A time=00:20:22.76 bitrate=N/A speed=3.61x    frame=29362 fps= 86 q=-0.0 size=N/A time=00:20:24.64 bitrate=N/A speed=3.61x    frame=29407 fps= 86 q=-0.0 size=N/A time=00:20:26.51 bitrate=N/A speed=3.61x    frame=29452 fps= 86 q=-0.0 size=N/A time=00:20:28.39 bitrate=N/A speed=3.61x    frame=29495 fps= 86 q=-0.0 size=N/A time=00:20:30.18 bitrate=N/A speed=3.61x    frame=29542 fps= 86 q=-0.0 size=N/A time=00:20:32.14 bitrate=N/A speed=3.61x    frame=29588 fps= 86 q=-0.0 size=N/A time=00:20:34.06 bitrate=N/A speed=3.61x    frame=29631 fps= 86 q=-0.0 size=N/A time=00:20:35.85 bitrate=N/A speed=3.61x    frame=29676 fps= 86 q=-0.0 size=N/A time=00:20:37.73 bitrate=N/A speed=3.61x    frame=29722 fps= 86 q=-0.0 size=N/A time=00:20:39.65 bitrate=N/A speed=3.61x    frame=29764 fps= 86 q=-0.0 size=N/A time=00:20:41.40 bitrate=N/A speed=3.61x    frame=29809 fps= 86 q=-0.0 size=N/A time=00:20:43.28 bitrate=N/A speed=3.61x    frame=29855 fps= 86 q=-0.0 size=N/A time=00:20:45.20 bitrate=N/A speed=3.61x    frame=29899 fps= 86 q=-0.0 size=N/A time=00:20:47.03 bitrate=N/A speed=3.61x    frame=29945 fps= 86 q=-0.0 size=N/A time=00:20:48.95 bitrate=N/A speed=3.61x    frame=29990 fps= 86 q=-0.0 size=N/A time=00:20:50.83 bitrate=N/A speed=3.61x    frame=30033 fps= 86 q=-0.0 size=N/A time=00:20:52.62 bitrate=N/A speed=3.61x    frame=30075 fps= 86 q=-0.0 size=N/A time=00:20:54.37 bitrate=N/A speed=3.61x    frame=30120 fps= 86 q=-0.0 size=N/A time=00:20:56.25 bitrate=N/A speed=3.61x    frame=30164 fps= 86 q=-0.0 size=N/A time=00:20:58.09 bitrate=N/A speed=3.61x    frame=30206 fps= 86 q=-0.0 size=N/A time=00:20:59.84 bitrate=N/A speed=3.61x    frame=30251 fps= 86 q=-0.0 size=N/A time=00:21:01.71 bitrate=N/A speed=3.61x    frame=30295 fps= 86 q=-0.0 size=N/A time=00:21:03.55 bitrate=N/A speed=3.61x    frame=30338 fps= 86 q=-0.0 size=N/A time=00:21:05.34 bitrate=N/A speed=3.61x    frame=30385 fps= 86 q=-0.0 size=N/A time=00:21:07.30 bitrate=N/A speed=3.61x    frame=30429 fps= 86 q=-0.0 size=N/A time=00:21:09.14 bitrate=N/A speed=3.61x    frame=30474 fps= 86 q=-0.0 size=N/A time=00:21:11.01 bitrate=N/A speed=3.61x    frame=30517 fps= 86 q=-0.0 size=N/A time=00:21:12.81 bitrate=N/A speed=3.61x    frame=30561 fps= 86 q=-0.0 size=N/A time=00:21:14.64 bitrate=N/A speed=3.61x    frame=30606 fps= 86 q=-0.0 size=N/A time=00:21:16.52 bitrate=N/A speed=3.61x    frame=30650 fps= 86 q=-0.0 size=N/A time=00:21:18.36 bitrate=N/A speed=3.61x    frame=30696 fps= 86 q=-0.0 size=N/A time=00:21:20.27 bitrate=N/A speed=3.61x    frame=30742 fps= 86 q=-0.0 size=N/A time=00:21:22.19 bitrate=N/A speed=3.61x    frame=30788 fps= 86 q=-0.0 size=N/A time=00:21:24.11 bitrate=N/A speed=3.61x    frame=30833 fps= 86 q=-0.0 size=N/A time=00:21:25.99 bitrate=N/A speed=3.61x    frame=30880 fps= 86 q=-0.0 size=N/A time=00:21:27.95 bitrate=N/A speed=3.61x    frame=30925 fps= 86 q=-0.0 size=N/A time=00:21:29.83 bitrate=N/A speed=3.61x    frame=30970 fps= 86 q=-0.0 size=N/A time=00:21:31.70 bitrate=N/A speed=3.61x    frame=31017 fps= 86 q=-0.0 size=N/A time=00:21:33.66 bitrate=N/A speed=3.61x    frame=31063 fps= 87 q=-0.0 size=N/A time=00:21:35.58 bitrate=N/A speed=3.61x    frame=31108 fps= 87 q=-0.0 size=N/A time=00:21:37.46 bitrate=N/A speed=3.61x    frame=31153 fps= 87 q=-0.0 size=N/A time=00:21:39.33 bitrate=N/A speed=3.61x    frame=31195 fps= 86 q=-0.0 size=N/A time=00:21:41.09 bitrate=N/A speed=3.61x    frame=31239 fps= 86 q=-0.0 size=N/A time=00:21:42.92 bitrate=N/A speed=3.61x    frame=31286 fps= 87 q=-0.0 size=N/A time=00:21:44.88 bitrate=N/A speed=3.61x    frame=31329 fps= 86 q=-0.0 size=N/A time=00:21:46.68 bitrate=N/A speed=3.61x    frame=31374 fps= 87 q=-0.0 size=N/A time=00:21:48.55 bitrate=N/A speed=3.61x    frame=31419 fps= 87 q=-0.0 size=N/A time=00:21:50.43 bitrate=N/A speed=3.61x    frame=31462 fps= 86 q=-0.0 size=N/A time=00:21:52.22 bitrate=N/A speed=3.61x    frame=31507 fps= 86 q=-0.0 size=N/A time=00:21:54.10 bitrate=N/A speed=3.61x    frame=31551 fps= 86 q=-0.0 size=N/A time=00:21:55.93 bitrate=N/A speed=3.61x    frame=31595 fps= 86 q=-0.0 size=N/A time=00:21:57.77 bitrate=N/A speed=3.61x    frame=31641 fps= 86 q=-0.0 size=N/A time=00:21:59.69 bitrate=N/A speed=3.61x    frame=31686 fps= 87 q=-0.0 size=N/A time=00:22:01.57 bitrate=N/A speed=3.61x    frame=31731 fps= 87 q=-0.0 size=N/A time=00:22:03.44 bitrate=N/A speed=3.61x    frame=31775 fps= 86 q=-0.0 size=N/A time=00:22:05.28 bitrate=N/A speed=3.61x    frame=31819 fps= 86 q=-0.0 size=N/A time=00:22:07.11 bitrate=N/A speed=3.61x    frame=31862 fps= 86 q=-0.0 size=N/A time=00:22:08.91 bitrate=N/A speed=3.61x    frame=31910 fps= 87 q=-0.0 size=N/A time=00:22:10.91 bitrate=N/A speed=3.61x    frame=31951 fps= 86 q=-0.0 size=N/A time=00:22:12.62 bitrate=N/A speed=3.61x    frame=31996 fps= 86 q=-0.0 size=N/A time=00:22:14.49 bitrate=N/A speed=3.61x    frame=32041 fps= 86 q=-0.0 size=N/A time=00:22:16.37 bitrate=N/A speed=3.61x    frame=32085 fps= 86 q=-0.0 size=N/A time=00:22:18.21 bitrate=N/A speed=3.61x    frame=32131 fps= 86 q=-0.0 size=N/A time=00:22:20.13 bitrate=N/A speed=3.61x    frame=32173 fps= 86 q=-0.0 size=N/A time=00:22:21.88 bitrate=N/A speed=3.61x    frame=32220 fps= 86 q=-0.0 size=N/A time=00:22:23.84 bitrate=N/A speed=3.61x    frame=32267 fps= 87 q=-0.0 size=N/A time=00:22:25.80 bitrate=N/A speed=3.61x    frame=32312 fps= 87 q=-0.0 size=N/A time=00:22:27.67 bitrate=N/A speed=3.61x    frame=32357 fps= 87 q=-0.0 size=N/A time=00:22:29.55 bitrate=N/A speed=3.61x    frame=32406 fps= 87 q=-0.0 size=N/A time=00:22:31.60 bitrate=N/A speed=3.61x    frame=32450 fps= 87 q=-0.0 size=N/A time=00:22:33.43 bitrate=N/A speed=3.61x    frame=32493 fps= 87 q=-0.0 size=N/A time=00:22:35.22 bitrate=N/A speed=3.61x    frame=32536 fps= 87 q=-0.0 size=N/A time=00:22:37.02 bitrate=N/A speed=3.61x    frame=32581 fps= 87 q=-0.0 size=N/A time=00:22:38.89 bitrate=N/A speed=3.61x    frame=32624 fps= 87 q=-0.0 size=N/A time=00:22:40.69 bitrate=N/A speed=3.61x    frame=32670 fps= 87 q=-0.0 size=N/A time=00:22:42.61 bitrate=N/A speed=3.61x    frame=32714 fps= 87 q=-0.0 size=N/A time=00:22:44.44 bitrate=N/A speed=3.61x    frame=32760 fps= 87 q=-0.0 size=N/A time=00:22:46.36 bitrate=N/A speed=3.61x    frame=32806 fps= 87 q=-0.0 size=N/A time=00:22:48.28 bitrate=N/A speed=3.61x    frame=32853 fps= 87 q=-0.0 size=N/A time=00:22:50.24 bitrate=N/A speed=3.61x    frame=32898 fps= 87 q=-0.0 size=N/A time=00:22:52.12 bitrate=N/A speed=3.61x    frame=32943 fps= 87 q=-0.0 size=N/A time=00:22:53.99 bitrate=N/A speed=3.61x    frame=32988 fps= 87 q=-0.0 size=N/A time=00:22:55.87 bitrate=N/A speed=3.61x    frame=33035 fps= 87 q=-0.0 size=N/A time=00:22:57.83 bitrate=N/A speed=3.61x    frame=33078 fps= 87 q=-0.0 size=N/A time=00:22:59.62 bitrate=N/A speed=3.61x    frame=33122 fps= 87 q=-0.0 size=N/A time=00:23:01.46 bitrate=N/A speed=3.61x    frame=33167 fps= 87 q=-0.0 size=N/A time=00:23:03.34 bitrate=N/A speed=3.61x    frame=33213 fps= 87 q=-0.0 size=N/A time=00:23:05.25 bitrate=N/A speed=3.61x    frame=33259 fps= 87 q=-0.0 size=N/A time=00:23:07.17 bitrate=N/A speed=3.61x    frame=33305 fps= 87 q=-0.0 size=N/A time=00:23:09.09 bitrate=N/A speed=3.61x    frame=33348 fps= 87 q=-0.0 size=N/A time=00:23:10.88 bitrate=N/A speed=3.61x    frame=33393 fps= 87 q=-0.0 size=N/A time=00:23:12.76 bitrate=N/A speed=3.61x    frame=33440 fps= 87 q=-0.0 size=N/A time=00:23:14.72 bitrate=N/A speed=3.61x    frame=33486 fps= 87 q=-0.0 size=N/A time=00:23:16.64 bitrate=N/A speed=3.61x    frame=33531 fps= 87 q=-0.0 size=N/A time=00:23:18.52 bitrate=N/A speed=3.61x    frame=33577 fps= 87 q=-0.0 size=N/A time=00:23:20.44 bitrate=N/A speed=3.61x    frame=33620 fps= 87 q=-0.0 size=N/A time=00:23:22.23 bitrate=N/A speed=3.61x    frame=33663 fps= 87 q=-0.0 size=N/A time=00:23:24.02 bitrate=N/A speed=3.61x    frame=33706 fps= 87 q=-0.0 size=N/A time=00:23:25.82 bitrate=N/A speed=3.61x    frame=33749 fps= 87 q=-0.0 size=N/A time=00:23:27.61 bitrate=N/A speed=3.61x    frame=33793 fps= 87 q=-0.0 size=N/A time=00:23:29.44 bitrate=N/A speed=3.61x    frame=33837 fps= 87 q=-0.0 size=N/A time=00:23:31.28 bitrate=N/A speed=3.61x    frame=33883 fps= 87 q=-0.0 size=N/A time=00:23:33.20 bitrate=N/A speed=3.61x    frame=33926 fps= 87 q=-0.0 size=N/A time=00:23:34.99 bitrate=N/A speed=3.61x    frame=33968 fps= 87 q=-0.0 size=N/A time=00:23:36.74 bitrate=N/A speed=3.61x    frame=34012 fps= 87 q=-0.0 size=N/A time=00:23:38.58 bitrate=N/A speed=3.61x    frame=34056 fps= 87 q=-0.0 size=N/A time=00:23:40.41 bitrate=N/A speed=3.61x    frame=34100 fps= 87 q=-0.0 size=N/A time=00:23:42.25 bitrate=N/A speed=3.61x    frame=34144 fps= 87 q=-0.0 size=N/A time=00:23:44.08 bitrate=N/A speed=3.61x    frame=34187 fps= 87 q=-0.0 size=N/A time=00:23:45.88 bitrate=N/A speed=3.61x    frame=34233 fps= 87 q=-0.0 size=N/A time=00:23:47.80 bitrate=N/A speed=3.61x    frame=34276 fps= 87 q=-0.0 size=N/A time=00:23:49.59 bitrate=N/A speed=3.61x    frame=34320 fps= 87 q=-0.0 size=N/A time=00:23:51.43 bitrate=N/A speed=3.61x    frame=34364 fps= 87 q=-0.0 size=N/A time=00:23:53.26 bitrate=N/A speed=3.61x    frame=34406 fps= 86 q=-0.0 size=N/A time=00:23:55.01 bitrate=N/A speed=3.61x    frame=34452 fps= 86 q=-0.0 size=N/A time=00:23:56.93 bitrate=N/A speed=3.61x    frame=34495 fps= 86 q=-0.0 size=N/A time=00:23:58.72 bitrate=N/A speed=3.61x    frame=34539 fps= 86 q=-0.0 size=N/A time=00:24:00.56 bitrate=N/A speed=3.61x    frame=34584 fps= 86 q=-0.0 size=N/A time=00:24:02.44 bitrate=N/A speed=3.61x    frame=34628 fps= 86 q=-0.0 size=N/A time=00:24:04.27 bitrate=N/A speed=3.61x    frame=34673 fps= 86 q=-0.0 size=N/A time=00:24:06.15 bitrate=N/A speed=3.61x    frame=34716 fps= 86 q=-0.0 size=N/A time=00:24:07.94 bitrate=N/A speed=3.61x    frame=34758 fps= 86 q=-0.0 size=N/A time=00:24:09.69 bitrate=N/A speed=3.61x    frame=34802 fps= 86 q=-0.0 size=N/A time=00:24:11.53 bitrate=N/A speed=3.61x    frame=34848 fps= 86 q=-0.0 size=N/A time=00:24:13.45 bitrate=N/A speed=3.61x    frame=34891 fps= 86 q=-0.0 size=N/A time=00:24:15.24 bitrate=N/A speed=3.61x    frame=34935 fps= 86 q=-0.0 size=N/A time=00:24:17.08 bitrate=N/A speed=3.61x    frame=34980 fps= 86 q=-0.0 size=N/A time=00:24:18.95 bitrate=N/A speed=3.61x    frame=35021 fps= 86 q=-0.0 size=N/A time=00:24:20.66 bitrate=N/A speed=3.61x    frame=35064 fps= 86 q=-0.0 size=N/A time=00:24:22.46 bitrate=N/A speed=3.61x    frame=35109 fps= 86 q=-0.0 size=N/A time=00:24:24.33 bitrate=N/A speed=3.61x    frame=35152 fps= 86 q=-0.0 size=N/A time=00:24:26.13 bitrate=N/A speed=3.61x    frame=35195 fps= 86 q=-0.0 size=N/A time=00:24:27.92 bitrate=N/A speed=3.61x    frame=35238 fps= 86 q=-0.0 size=N/A time=00:24:29.71 bitrate=N/A speed=3.61x    frame=35282 fps= 86 q=-0.0 size=N/A time=00:24:31.55 bitrate=N/A speed=3.61x    frame=35327 fps= 86 q=-0.0 size=N/A time=00:24:33.43 bitrate=N/A speed=3.61x    frame=35371 fps= 86 q=-0.0 size=N/A time=00:24:35.26 bitrate=N/A speed=3.61x    frame=35415 fps= 86 q=-0.0 size=N/A time=00:24:37.10 bitrate=N/A speed=3.61x    frame=35459 fps= 86 q=-0.0 size=N/A time=00:24:38.93 bitrate=N/A speed=3.61x    frame=35500 fps= 86 q=-0.0 size=N/A time=00:24:40.64 bitrate=N/A speed=3.61x    frame=35544 fps= 86 q=-0.0 size=N/A time=00:24:42.48 bitrate=N/A speed=3.61x    frame=35589 fps= 86 q=-0.0 size=N/A time=00:24:44.35 bitrate=N/A speed=3.61x    frame=35635 fps= 86 q=-0.0 size=N/A time=00:24:46.27 bitrate=N/A speed=3.61x    [Parsed_libvmaf_10 @ 0000021750751280] VMAF score: 95.031546
[out#0/null @ 000002173a74e040] video:15314KiB audio:278820KiB subtitle:0KiB other streams:0KiB global headers:0KiB muxing overhead: unknown
frame=35641 fps= 86 q=-0.0 Lsize=N/A time=00:24:46.52 bitrate=N/A speed=3.59x    
